<svg width="673" height="363" viewBox="0 0 673 363" fill="none" xmlns="http://www.w3.org/2000/svg">
<path fill-rule="evenodd" clip-rule="evenodd" d="M247.419 333C204.681 333 161.045 327.868 120.99 311.824C99.0821 303.049 78.5325 289.306 67.0716 267.519C57.8035 249.902 53 228.526 53 207.097C52.9945 180.404 60.4286 153.628 75.9344 133.926C92.1285 113.349 115.278 99.8633 138.097 88.5608C166.63 74.4274 196.571 63.6238 226.237 52.3588C247.067 44.4492 267.154 36.5985 286.722 25.5117C305.042 15.1336 323.705 4.30184 344.737 1.33532C351.181 0.426347 357.645 0 364.111 0C397.837 0 431.51 11.6086 461.34 26.9264C526.135 60.1985 590.915 122.159 592.957 201.771C592.986 202.897 593 204.021 593 205.146C593 225.35 588.345 245.358 577.601 263.586C552.699 305.831 502.474 324.858 454.997 324.855C443.253 324.854 431.668 323.689 420.687 321.424C408.849 318.981 396.921 317.77 384.957 317.77C377.821 317.77 370.673 318.201 363.525 319.058C325.002 323.676 288.172 332.876 249.084 333C248.526 333 247.977 333 247.419 333Z" fill="#E2CAF9"/>
<path fill-rule="evenodd" clip-rule="evenodd" d="M213.851 40.5662L214.188 41.3895C218.686 39.7877 223.35 39.0232 227.966 39.0232C241.924 39.0232 255.42 46.0175 262.417 57.9291C265.737 63.5803 267.289 69.6197 267.289 75.552C267.289 80.9221 266.015 86.204 263.62 91.0166L263.391 91.4765L271.409 102.227L271.482 102.431L271.367 102.691C271.291 102.761 271.214 102.797 271.099 102.799L271.046 102.795L256.092 101.202L255.77 101.502C251.862 105.139 247.052 108.078 241.449 109.986C237.116 111.462 232.646 112.165 228.221 112.165C214.081 112.167 200.438 104.971 193.522 92.829C190.369 87.2966 188.891 81.4054 188.89 75.6155C188.893 60.987 198.336 47.036 214.188 41.3895L213.851 40.5662L213.514 39.7418C196.908 45.6576 186.997 60.2849 187 75.6155C187 81.6854 188.554 87.8682 191.853 93.6581C199.116 106.4 213.399 113.928 228.221 113.93C232.86 113.93 237.552 113.192 242.096 111.644C247.961 109.646 253.009 106.564 257.104 102.751L256.436 102.126L256.329 103.004L270.831 104.548L271.099 104.563C271.75 104.564 272.338 104.3 272.735 103.908C273.134 103.515 273.37 102.994 273.372 102.431C273.373 102.02 273.237 101.59 272.96 101.219L265.252 90.8849L264.477 91.3883L265.334 91.7599C267.844 86.7168 269.181 81.1832 269.181 75.552C269.181 69.3327 267.549 62.9946 264.074 57.0812C256.725 44.5803 242.594 37.2602 227.966 37.259C223.127 37.259 218.233 38.0611 213.514 39.7418L213.851 40.5662Z" fill="#6E35A2"/>
<path fill-rule="evenodd" clip-rule="evenodd" d="M244.832 94.2497L207.074 87.5906L207.643 61.5139L253.384 68.9798L244.832 94.2497Z" fill="#9390BA"/>
<mask id="mask0_12936_182658" style="mask-type:alpha" maskUnits="userSpaceOnUse" x="207" y="47" width="47" height="22">
<path d="M253.384 68.9799L207.643 61.514L233.802 47.697L253.384 68.9799Z" fill="white"/>
</mask>
<g mask="url(#mask0_12936_182658)">
<path fill-rule="evenodd" clip-rule="evenodd" d="M253.384 68.9799L207.643 61.514L233.802 47.697L253.384 68.9799Z" fill="#9B4BE6"/>
</g>
<path fill-rule="evenodd" clip-rule="evenodd" d="M243.691 94.9295L207.074 88.9513L212.484 60.0825L249.101 66.0595L243.691 94.9295Z" fill="#DAB1FF"/>
<mask id="mask1_12936_182658" style="mask-type:alpha" maskUnits="userSpaceOnUse" x="202" y="61" width="22" height="29">
<path d="M202.441 89.2701L207.643 61.5139L223.058 75.7813L202.441 89.2701Z" fill="white"/>
</mask>
<g mask="url(#mask1_12936_182658)">
<path fill-rule="evenodd" clip-rule="evenodd" d="M202.441 89.2701L207.643 61.5139L223.058 75.7813L202.441 89.2701Z" fill="#9B4BE6"/>
</g>
<mask id="mask2_12936_182658" style="mask-type:alpha" maskUnits="userSpaceOnUse" x="233" y="68" width="21" height="29">
<path d="M248.182 96.7372L233.758 77.4914L248.127 71.2603L253.384 68.9799L248.182 96.7372Z" fill="white"/>
</mask>
<g mask="url(#mask2_12936_182658)">
<path fill-rule="evenodd" clip-rule="evenodd" d="M248.182 96.7372L233.758 77.4914L248.127 71.2603L253.384 68.9799L248.182 96.7372Z" fill="#9B4BE6"/>
</g>
<path fill-rule="evenodd" clip-rule="evenodd" d="M244.832 94.2498L243.851 94.0769L243.991 93.3289L244.895 94.0639L244.832 94.2498ZM207.321 87.6341L207.074 87.5906L207.348 87.4918L207.321 87.6341Z" fill="#8583B2"/>
<path fill-rule="evenodd" clip-rule="evenodd" d="M243.691 94.9295L207.074 88.9514L207.321 87.6341L207.348 87.4918L227.728 80.1047L223.057 75.7813L229.377 71.6461L233.758 77.4914L227.73 80.1047L243.991 93.3288L243.851 94.0768L243.691 94.9295Z" fill="#6E35A2"/>
<mask id="mask3_12936_182658" style="mask-type:alpha" maskUnits="userSpaceOnUse" x="202" y="75" width="26" height="15">
<path d="M202.441 89.2701L223.058 75.7814L227.729 80.1047L207.348 87.4919L207.075 87.5907L202.441 89.2701Z" fill="white"/>
</mask>
<g mask="url(#mask3_12936_182658)">
<path fill-rule="evenodd" clip-rule="evenodd" d="M202.441 89.2701L223.058 75.7814L227.729 80.1047L207.348 87.4919L207.075 87.5907L202.441 89.2701Z" fill="#6E35A2"/>
</g>
<mask id="mask4_12936_182658" style="mask-type:alpha" maskUnits="userSpaceOnUse" x="227" y="77" width="22" height="20">
<path d="M248.182 96.7372L244.894 94.0639L243.991 93.3288L227.729 80.1046L233.758 77.4913L248.182 96.7372Z" fill="white"/>
</mask>
<g mask="url(#mask4_12936_182658)">
<path fill-rule="evenodd" clip-rule="evenodd" d="M248.182 96.7372L244.894 94.0639L243.991 93.3288L227.729 80.1046L233.758 77.4913L248.182 96.7372Z" fill="#6E35A2"/>
</g>
<mask id="mask5_12936_182658" style="mask-type:alpha" maskUnits="userSpaceOnUse" x="202" y="75" width="47" height="22">
<path d="M248.183 96.7373L202.441 89.2702L228.601 75.4532L248.183 96.7373Z" fill="white"/>
</mask>
<g mask="url(#mask5_12936_182658)">
<path fill-rule="evenodd" clip-rule="evenodd" d="M248.183 96.7373L202.441 89.2702L228.601 75.4532L248.183 96.7373Z" fill="#9B4BE6"/>
</g>
<path d="M612.083 291.35L606.78 289.421L603.084 280.938H612.083" fill="white"/>
<path d="M612.083 291.35L606.78 289.421L603.084 280.938H612.083" stroke="#E2E8F0" stroke-width="1.5" stroke-miterlimit="10" stroke-linecap="round" stroke-linejoin="round"/>
<path d="M612.084 280.938H621.086L617.387 289.421L612.084 291.35V343.309" fill="white"/>
<path d="M612.084 280.938H621.086L617.387 289.421L612.084 291.35V343.309" stroke="#E2E8F0" stroke-width="1.5" stroke-miterlimit="10" stroke-linecap="round" stroke-linejoin="round"/>
<path d="M603.084 280.939L612.083 272.226L620.94 281.081L603.084 280.939Z" fill="white" stroke="#E2E8F0" stroke-width="1.5" stroke-miterlimit="10" stroke-linecap="round" stroke-linejoin="round"/>
<path d="M616.583 343.327H607.441V329.97H616.583V343.327Z" fill="white" stroke="#E2E8F0" stroke-width="1.5" stroke-miterlimit="10" stroke-linecap="round" stroke-linejoin="round"/>
<path d="M435.898 291.35L430.595 289.421L426.901 280.938H435.898" fill="white"/>
<path d="M435.898 291.35L430.595 289.421L426.901 280.938H435.898" stroke="#E2E8F0" stroke-width="1.5" stroke-miterlimit="10" stroke-linecap="round" stroke-linejoin="round"/>
<path d="M435.899 280.938H444.904L441.203 289.421L435.899 291.35V343.309" fill="white"/>
<path d="M435.899 280.938H444.904L441.203 289.421L435.899 291.35V343.309" stroke="#E2E8F0" stroke-width="1.5" stroke-miterlimit="10" stroke-linecap="round" stroke-linejoin="round"/>
<path d="M426.905 280.939L435.902 272.226L444.759 281.081L426.905 280.939Z" fill="white" stroke="#E2E8F0" stroke-width="1.5" stroke-miterlimit="10" stroke-linecap="round" stroke-linejoin="round"/>
<path d="M440.399 343.327H431.26V329.97H440.399V343.327Z" fill="white" stroke="#E2E8F0" stroke-width="1.5" stroke-miterlimit="10" stroke-linecap="round" stroke-linejoin="round"/>
<path d="M219.472 291.35L214.169 289.421L210.473 280.938H219.472" fill="white"/>
<path d="M219.472 291.35L214.169 289.421L210.473 280.938H219.472" stroke="#E2E8F0" stroke-width="1.5" stroke-miterlimit="10" stroke-linecap="round" stroke-linejoin="round"/>
<path d="M219.473 280.938H228.472L224.776 289.421L219.473 291.35V343.309" fill="white"/>
<path d="M219.473 280.938H228.472L224.776 289.421L219.473 291.35V343.309" stroke="#E2E8F0" stroke-width="1.5" stroke-miterlimit="10" stroke-linecap="round" stroke-linejoin="round"/>
<path d="M210.474 280.939L219.473 272.226L228.33 281.081L210.474 280.939Z" fill="white" stroke="#E2E8F0" stroke-width="1.5" stroke-miterlimit="10" stroke-linecap="round" stroke-linejoin="round"/>
<path d="M223.971 343.327H214.832V329.97H223.971V343.327Z" fill="white" stroke="#E2E8F0" stroke-width="1.5" stroke-miterlimit="10" stroke-linecap="round" stroke-linejoin="round"/>
<path d="M43.7381 291.35L38.4349 289.421L34.7363 280.938H43.7381" fill="white"/>
<path d="M43.7381 291.35L38.4349 289.421L34.7363 280.938H43.7381" stroke="#E2E8F0" stroke-width="1.5" stroke-miterlimit="10" stroke-linecap="round" stroke-linejoin="round"/>
<path d="M43.7402 280.938H52.737L49.0435 289.421L43.7402 291.35V343.309" fill="white"/>
<path d="M43.7402 280.938H52.737L49.0435 289.421L43.7402 291.35V343.309" stroke="#E2E8F0" stroke-width="1.5" stroke-miterlimit="10" stroke-linecap="round" stroke-linejoin="round"/>
<path d="M34.7363 280.939L43.7381 272.226L52.5926 281.081L34.7363 280.939Z" fill="white" stroke="#E2E8F0" stroke-width="1.5" stroke-miterlimit="10" stroke-linecap="round" stroke-linejoin="round"/>
<path d="M48.2347 343.327H39.0957V329.97H48.2347V343.327Z" fill="white" stroke="#E2E8F0" stroke-width="1.5" stroke-miterlimit="10" stroke-linecap="round" stroke-linejoin="round"/>
<path d="M0 343.328H672.401" stroke="#E2E8F0" stroke-width="1.5" stroke-miterlimit="10"/>
<path d="M666.162 361.638H672.401" stroke="#E2E8F0" stroke-width="1.5" stroke-miterlimit="10"/>
<path d="M433.835 229.91H223.206V242.355H433.835V229.91Z" fill="white" stroke="#E2E8F0" stroke-width="1.5" stroke-miterlimit="10" stroke-linecap="round" stroke-linejoin="round"/>
<path d="M68.6297 164.138V164.135H68.1297C67.1917 164.135 66.4879 164.015 66.0038 163.824C65.5194 163.633 65.3098 163.395 65.2368 163.185C65.1637 162.974 65.1812 162.657 65.4432 162.207C65.7051 161.758 66.1835 161.228 66.9194 160.648L132.193 109.19L131.884 108.799L132.193 109.19C135.065 106.926 139.796 106.938 142.66 109.219C142.66 109.219 142.66 109.219 142.66 109.219L207.127 160.619L207.127 160.619C207.86 161.203 208.336 161.736 208.595 162.189C208.855 162.642 208.871 162.962 208.796 163.177C208.721 163.392 208.508 163.633 208.022 163.825C207.537 164.017 206.833 164.138 205.896 164.138H68.6297Z" fill="white" stroke="#E2E8F0"/>
<path d="M68.1297 164.635C64.2365 164.635 63.5552 162.664 66.6099 160.255L131.883 108.798C134.938 106.39 139.927 106.402 142.971 108.828L207.438 160.228C210.483 162.654 209.787 164.638 205.896 164.638H68.1297V164.635Z" fill="white" stroke="#E2E8F0" stroke-width="1.5" stroke-miterlimit="10"/>
<path d="M137.438 147.508C144.287 147.508 149.839 141.956 149.839 135.107C149.839 128.258 144.287 122.706 137.438 122.706C130.589 122.706 125.037 128.258 125.037 135.107C125.037 141.956 130.589 147.508 137.438 147.508Z" fill="white" stroke="#E2E8F0" stroke-width="1.5" stroke-miterlimit="10" stroke-linecap="round" stroke-linejoin="round"/>
<path opacity="0.4" d="M97.9932 147.409V143.343H109.818V147.409H97.9932Z" fill="white" stroke="#E2E8F0"/>
<path opacity="0.4" d="M154.956 149.54V145.474H166.781V149.54H154.956Z" fill="white" stroke="#E2E8F0"/>
<path opacity="0.4" d="M146.623 154.604V150.54H158.448V154.604H146.623Z" fill="white" stroke="#E2E8F0"/>
<path opacity="0.4" d="M362.84 239.73V235.667H374.665V239.73H362.84Z" fill="white" stroke="#E2E8F0"/>
<path opacity="0.4" d="M297.924 232.134V228.07H309.749V232.134H297.924Z" fill="white" stroke="#E2E8F0"/>
<path d="M421.408 180.157H234.582V212.857H421.408V180.157Z" fill="white" stroke="#E2E8F0" stroke-width="1.5" stroke-miterlimit="10" stroke-linecap="round" stroke-linejoin="round"/>
<path d="M244.564 212.857V229.91" stroke="#E2E8F0" stroke-width="1.5" stroke-miterlimit="10"/>
<path d="M301.85 212.857V229.91" stroke="#E2E8F0" stroke-width="1.5" stroke-miterlimit="10"/>
<path d="M354.139 212.857V229.91" stroke="#E2E8F0" stroke-width="1.5" stroke-miterlimit="10"/>
<path d="M404.159 242.449H251.688V343.327H404.159V242.449Z" fill="white" stroke="#E2E8F0" stroke-width="1.5" stroke-miterlimit="10"/>
<path d="M282.16 279.883H251.688V343.327H282.16V279.883Z" fill="white" stroke="#E2E8F0" stroke-width="1.5" stroke-miterlimit="10"/>
<path d="M282.16 242.449H251.688V279.883H282.16V242.449Z" fill="white" stroke="#E2E8F0" stroke-width="1.5" stroke-miterlimit="10"/>
<path d="M312.658 242.449H282.187V279.883H312.658V242.449Z" fill="white" stroke="#E2E8F0" stroke-width="1.5" stroke-miterlimit="10"/>
<path d="M343.16 242.449H312.69V279.883H343.16V242.449Z" fill="white" stroke="#E2E8F0" stroke-width="1.5" stroke-miterlimit="10"/>
<path d="M373.652 242.449H343.186V279.883H373.652V242.449Z" fill="white" stroke="#E2E8F0" stroke-width="1.5" stroke-miterlimit="10"/>
<path d="M404.159 242.449H373.685V279.883H404.159V242.449Z" fill="white" stroke="#E2E8F0" stroke-width="1.5" stroke-miterlimit="10"/>
<path d="M312.658 279.883H282.187V343.327H312.658V279.883Z" fill="white" stroke="#E2E8F0" stroke-width="1.5" stroke-miterlimit="10" stroke-linecap="round" stroke-linejoin="round"/>
<path d="M343.16 279.883H312.69V343.327H343.16V279.883Z" fill="white" stroke="#E2E8F0" stroke-width="1.5" stroke-miterlimit="10" stroke-linecap="round" stroke-linejoin="round"/>
<path d="M373.657 279.883H343.186V343.327H373.657V279.883Z" fill="white" stroke="#E2E8F0" stroke-width="1.5" stroke-miterlimit="10" stroke-linecap="round" stroke-linejoin="round"/>
<path d="M404.159 279.883H373.685V343.327H404.159V279.883Z" fill="white" stroke="#E2E8F0" stroke-width="1.5" stroke-miterlimit="10"/>
<path d="M336.455 256.888C336.455 263.689 332.542 269.197 327.711 269.197C322.879 269.197 318.966 263.689 318.966 256.888" fill="white"/>
<path d="M336.455 256.888C336.455 263.689 332.542 269.197 327.711 269.197C322.879 269.197 318.966 263.689 318.966 256.888" stroke="#E2E8F0" stroke-width="1.5" stroke-miterlimit="10" stroke-linecap="round" stroke-linejoin="round"/>
<path d="M318.369 256.888C318.369 263.689 314.456 269.197 309.632 269.197C304.8 269.197 300.882 263.689 300.882 256.888" fill="white"/>
<path d="M318.369 256.888C318.369 263.689 314.456 269.197 309.632 269.197C304.8 269.197 300.882 263.689 300.882 256.888" stroke="#E2E8F0" stroke-width="1.5" stroke-miterlimit="10" stroke-linecap="round" stroke-linejoin="round"/>
<path d="M300.286 256.888C300.286 263.689 296.371 269.197 291.542 269.197C286.71 269.197 282.797 263.689 282.797 256.888" fill="white"/>
<path d="M300.286 256.888C300.286 263.689 296.371 269.197 291.542 269.197C286.71 269.197 282.797 263.689 282.797 256.888" stroke="#E2E8F0" stroke-width="1.5" stroke-miterlimit="10" stroke-linecap="round" stroke-linejoin="round"/>
<path d="M282.197 256.888C282.197 263.689 278.284 269.197 273.453 269.197C268.621 269.197 264.708 263.689 264.708 256.888" fill="white"/>
<path d="M282.197 256.888C282.197 263.689 278.284 269.197 273.453 269.197C268.621 269.197 264.708 263.689 264.708 256.888" stroke="#E2E8F0" stroke-width="1.5" stroke-miterlimit="10" stroke-linecap="round" stroke-linejoin="round"/>
<path d="M264.109 256.888C264.109 263.689 260.196 269.197 255.367 269.197C250.535 269.197 246.622 263.689 246.622 256.888" fill="white"/>
<path d="M264.109 256.888C264.109 263.689 260.196 269.197 255.367 269.197C250.535 269.197 246.622 263.689 246.622 256.888" stroke="#E2E8F0" stroke-width="1.5" stroke-miterlimit="10" stroke-linecap="round" stroke-linejoin="round"/>
<path d="M336.455 241.825H318.966V256.886H336.455V241.825Z" fill="white" stroke="#E2E8F0" stroke-width="1.5" stroke-miterlimit="10" stroke-linecap="round" stroke-linejoin="round"/>
<path d="M319.387 241.825H301.905L300.882 256.889H319.387V241.825Z" fill="white" stroke="#E2E8F0" stroke-width="1.5" stroke-miterlimit="10" stroke-linecap="round" stroke-linejoin="round"/>
<path d="M301.861 241.825H283.306L282.285 256.889H300.883L301.861 241.825Z" fill="white" stroke="#E2E8F0" stroke-width="1.5" stroke-miterlimit="10" stroke-linecap="round" stroke-linejoin="round"/>
<path d="M283.241 241.825H267.196L264.708 256.889H282.262L283.241 241.825Z" fill="white" stroke="#E2E8F0" stroke-width="1.5" stroke-miterlimit="10" stroke-linecap="round" stroke-linejoin="round"/>
<path d="M267.196 241.825H251.209L246.622 256.889H264.179L267.196 241.825Z" fill="white" stroke="#E2E8F0" stroke-width="1.5" stroke-miterlimit="10" stroke-linecap="round" stroke-linejoin="round"/>
<path d="M337.474 256.888C337.474 263.689 341.387 269.197 346.218 269.197C351.047 269.197 354.961 263.689 354.961 256.888" fill="white"/>
<path d="M337.474 256.888C337.474 263.689 341.387 269.197 346.218 269.197C351.047 269.197 354.961 263.689 354.961 256.888" stroke="#E2E8F0" stroke-width="1.5" stroke-miterlimit="10" stroke-linecap="round" stroke-linejoin="round"/>
<path d="M355.562 256.888C355.562 263.689 359.476 269.197 364.307 269.197C369.139 269.197 373.052 263.689 373.052 256.888" fill="white"/>
<path d="M355.562 256.888C355.562 263.689 359.476 269.197 364.307 269.197C369.139 269.197 373.052 263.689 373.052 256.888" stroke="#E2E8F0" stroke-width="1.5" stroke-miterlimit="10" stroke-linecap="round" stroke-linejoin="round"/>
<path d="M373.646 256.888C373.646 263.689 377.559 269.197 382.39 269.197C387.222 269.197 391.135 263.689 391.135 256.888" fill="white"/>
<path d="M373.646 256.888C373.646 263.689 377.559 269.197 382.39 269.197C387.222 269.197 391.135 263.689 391.135 256.888" stroke="#E2E8F0" stroke-width="1.5" stroke-miterlimit="10" stroke-linecap="round" stroke-linejoin="round"/>
<path d="M391.733 256.888C391.733 263.689 395.647 269.197 400.478 269.197C405.31 269.197 409.223 263.689 409.223 256.888" fill="white"/>
<path d="M391.733 256.888C391.733 263.689 395.647 269.197 400.478 269.197C405.31 269.197 409.223 263.689 409.223 256.888" stroke="#E2E8F0" stroke-width="1.5" stroke-miterlimit="10" stroke-linecap="round" stroke-linejoin="round"/>
<path d="M336.457 241.825H353.944L354.965 256.889H336.457V241.825Z" fill="white" stroke="#E2E8F0" stroke-width="1.5" stroke-miterlimit="10" stroke-linecap="round" stroke-linejoin="round"/>
<path d="M353.983 241.825H372.538L373.559 256.889H354.964L353.983 241.825Z" fill="white" stroke="#E2E8F0" stroke-width="1.5" stroke-miterlimit="10" stroke-linecap="round" stroke-linejoin="round"/>
<path d="M372.603 241.825H388.649L391.135 256.889H373.581L372.603 241.825Z" fill="white" stroke="#E2E8F0" stroke-width="1.5" stroke-miterlimit="10" stroke-linecap="round" stroke-linejoin="round"/>
<path d="M388.651 241.825H404.638L409.225 256.889H391.671L388.651 241.825Z" fill="white" stroke="#E2E8F0" stroke-width="1.5" stroke-miterlimit="10" stroke-linecap="round" stroke-linejoin="round"/>
<path d="M397.267 317.086C397.267 321.695 393.528 325.431 388.922 325.431C384.31 325.431 380.576 321.695 380.576 317.086V298.681C380.576 294.071 384.31 290.335 388.922 290.335C393.528 290.335 397.267 294.071 397.267 298.681V317.086Z" fill="white" stroke="#E2E8F0" stroke-width="1.5" stroke-miterlimit="10" stroke-linecap="round" stroke-linejoin="round"/>
<path d="M388.921 343.178V303.437" stroke="#E2E8F0" stroke-width="1.5" stroke-miterlimit="10" stroke-linecap="round" stroke-linejoin="round"/>
<path d="M395.01 334.633H382.834V343.327H395.01V334.633Z" fill="white" stroke="#E2E8F0" stroke-width="1.5" stroke-miterlimit="10" stroke-linecap="round" stroke-linejoin="round"/>
<path d="M275.537 317.086C275.537 321.695 271.803 325.431 267.191 325.431C262.584 325.431 258.846 321.695 258.846 317.086V298.681C258.846 294.071 262.584 290.335 267.191 290.335C271.803 290.335 275.537 294.071 275.537 298.681V317.086Z" fill="white" stroke="#E2E8F0" stroke-width="1.5" stroke-miterlimit="10" stroke-linecap="round" stroke-linejoin="round"/>
<path d="M267.196 343.178V303.437" stroke="#E2E8F0" stroke-width="1.5" stroke-miterlimit="10" stroke-linecap="round" stroke-linejoin="round"/>
<path d="M273.282 334.633H261.105V343.327H273.282V334.633Z" fill="white" stroke="#E2E8F0" stroke-width="1.5" stroke-miterlimit="10" stroke-linecap="round" stroke-linejoin="round"/>
<path d="M305.465 286.612H289.381V329.155H305.465V286.612Z" fill="white" stroke="#E2E8F0" stroke-width="1.5" stroke-miterlimit="10" stroke-linecap="round" stroke-linejoin="round"/>
<path d="M336.037 286.612H319.953V329.155H336.037V286.612Z" fill="white" stroke="#E2E8F0" stroke-width="1.5" stroke-miterlimit="10" stroke-linecap="round" stroke-linejoin="round"/>
<path d="M366.607 286.612H350.522V329.155H366.607V286.612Z" fill="white" stroke="#E2E8F0" stroke-width="1.5" stroke-miterlimit="10" stroke-linecap="round" stroke-linejoin="round"/>
<path d="M585.602 177.081H449.59V343.327H585.602V177.081Z" fill="white" stroke="#E2E8F0" stroke-width="1.5" stroke-miterlimit="10" stroke-linecap="round" stroke-linejoin="round"/>
<path d="M205.02 177.081H69.0078V343.327H205.02V177.081Z" fill="white" stroke="#E2E8F0" stroke-width="1.5" stroke-miterlimit="10" stroke-linecap="round" stroke-linejoin="round"/>
<path d="M217.913 164.635H56.1133V177.081H217.913V164.635Z" fill="white" stroke="#E2E8F0" stroke-width="1.5" stroke-miterlimit="10" stroke-linecap="round" stroke-linejoin="round"/>
<path d="M598.494 164.635H436.697V177.081H598.494V164.635Z" fill="white" stroke="#E2E8F0" stroke-width="1.5" stroke-miterlimit="10" stroke-linecap="round" stroke-linejoin="round"/>
<path d="M575.869 152.284H459.822V164.73H575.869V152.284Z" fill="white" stroke="#E2E8F0" stroke-width="1.5" stroke-miterlimit="10"/>
<path d="M483.593 279.884H449.59V343.328H483.593V279.884Z" fill="white" stroke="#E2E8F0" stroke-width="1.5" stroke-miterlimit="10"/>
<path d="M551.596 281.084H531.533V342.13H551.596V281.084Z" fill="white" stroke="#E2E8F0" stroke-width="1.5" stroke-miterlimit="10" stroke-linecap="round" stroke-linejoin="round"/>
<path d="M503.988 281.084H483.926V342.13H503.988V281.084Z" fill="white" stroke="#E2E8F0" stroke-width="1.5" stroke-miterlimit="10" stroke-linecap="round" stroke-linejoin="round"/>
<path d="M585.601 279.884H551.598V343.328H585.601V279.884Z" fill="white" stroke="#E2E8F0" stroke-width="1.5" stroke-miterlimit="10"/>
<path d="M585.602 269.195H449.59V279.883H585.602V269.195Z" fill="white" stroke="#E2E8F0" stroke-width="1.5" stroke-miterlimit="10" stroke-linecap="round" stroke-linejoin="round"/>
<path d="M118.999 207.51H93.7979V241.548H118.999V207.51Z" fill="white" stroke="#E2E8F0" stroke-width="1.5" stroke-miterlimit="10"/>
<path d="M123.419 241.548H89.3809V247.632H123.419V241.548Z" fill="white" stroke="#E2E8F0" stroke-width="1.5" stroke-miterlimit="10" stroke-linecap="round" stroke-linejoin="round"/>
<path d="M112.81 201.628V195.544H99.9873V201.628H89.3809V207.71H123.416V201.628H112.81Z" fill="white" stroke="#E2E8F0" stroke-width="1.5" stroke-miterlimit="10" stroke-linecap="round" stroke-linejoin="round"/>
<path d="M182.38 207.51H157.179V241.548H182.38V207.51Z" fill="white" stroke="#E2E8F0" stroke-width="1.5" stroke-miterlimit="10"/>
<path d="M186.799 241.548H152.761V247.632H186.799V241.548Z" fill="white" stroke="#E2E8F0" stroke-width="1.5" stroke-miterlimit="10" stroke-linecap="round" stroke-linejoin="round"/>
<path d="M176.192 201.628V195.544H163.367V201.628H152.761V207.71H186.799V201.628H176.192Z" fill="white" stroke="#E2E8F0" stroke-width="1.5" stroke-miterlimit="10" stroke-linecap="round" stroke-linejoin="round"/>
<path d="M118.999 281.161H93.7979V315.199H118.999V281.161Z" fill="white" stroke="#E2E8F0" stroke-width="1.5" stroke-miterlimit="10"/>
<path d="M123.419 315.199H89.3809V321.283H123.419V315.199Z" fill="white" stroke="#E2E8F0" stroke-width="1.5" stroke-miterlimit="10" stroke-linecap="round" stroke-linejoin="round"/>
<path d="M112.81 275.279V269.195H99.9873V275.279H89.3809V281.361H123.416V275.279H112.81Z" fill="white" stroke="#E2E8F0" stroke-width="1.5" stroke-miterlimit="10" stroke-linecap="round" stroke-linejoin="round"/>
<path d="M182.38 281.161H157.179V315.199H182.38V281.161Z" fill="white" stroke="#E2E8F0" stroke-width="1.5" stroke-miterlimit="10"/>
<path d="M186.799 315.199H152.761V321.283H186.799V315.199Z" fill="white" stroke="#E2E8F0" stroke-width="1.5" stroke-miterlimit="10" stroke-linecap="round" stroke-linejoin="round"/>
<path d="M176.192 275.279V269.195H163.367V275.279H152.761V281.361H186.799V275.279H176.192Z" fill="white" stroke="#E2E8F0" stroke-width="1.5" stroke-miterlimit="10" stroke-linecap="round" stroke-linejoin="round"/>
<path opacity="0.4" d="M148.922 257.552V253.289H161.251V257.552H148.922Z" fill="white" stroke="#E2E8F0"/>
<path d="M126.021 255.421H114.459" stroke="#E2E8F0" stroke-width="1.5" stroke-miterlimit="10" stroke-linecap="round"/>
<path d="M164.522 262.152H127.135" stroke="#E2E8F0" stroke-width="1.5" stroke-miterlimit="10" stroke-linecap="round"/>
<path d="M131.545 255.594H134.13" stroke="#E2E8F0" stroke-width="1.5" stroke-miterlimit="10" stroke-linecap="round"/>
<path d="M141.287 192.743H143.878" stroke="#E2E8F0" stroke-width="1.5" stroke-miterlimit="10" stroke-linecap="round"/>
<path d="M191.396 265.534H193.984" stroke="#E2E8F0" stroke-width="1.5" stroke-miterlimit="10" stroke-linecap="round"/>
<path d="M78.3662 228.142H80.9517" stroke="#E2E8F0" stroke-width="1.5" stroke-miterlimit="10" stroke-linecap="round"/>
<path d="M173.973 331.98H191.395" stroke="#E2E8F0" stroke-width="1.5" stroke-miterlimit="10" stroke-linecap="round"/>
<path d="M107.614 329.155H125.036" stroke="#E2E8F0" stroke-width="1.5" stroke-miterlimit="10" stroke-linecap="round"/>
<path d="M143.877 216.247H157.134" stroke="#E2E8F0" stroke-width="1.5" stroke-miterlimit="10" stroke-linecap="round"/>
<path d="M122.04 192.743H135.297" stroke="#E2E8F0" stroke-width="1.5" stroke-miterlimit="10" stroke-linecap="round"/>
<path d="M165.649 331.807H161.753" stroke="#E2E8F0" stroke-width="1.5" stroke-miterlimit="10" stroke-linecap="round"/>
<path d="M494.113 197.074H466.13V253.732H494.113V197.074Z" fill="white" stroke="#E2E8F0" stroke-width="1.5" stroke-miterlimit="10"/>
<path d="M466.13 218.888H494.113" stroke="#E2E8F0" stroke-width="1.5" stroke-miterlimit="10"/>
<path d="M499.71 197.074H460.159" stroke="#E2E8F0" stroke-width="1.5" stroke-miterlimit="10" stroke-linecap="round" stroke-linejoin="round"/>
<path d="M576.61 260.183H460.159V253.732H576.61V260.183Z" fill="white" stroke="#E2E8F0" stroke-width="1.5" stroke-miterlimit="10" stroke-linecap="round" stroke-linejoin="round"/>
<path d="M532.571 197.074H504.588V253.732H532.571V197.074Z" fill="white" stroke="#E2E8F0" stroke-width="1.5" stroke-miterlimit="10"/>
<path d="M504.585 218.888H532.568" stroke="#E2E8F0" stroke-width="1.5" stroke-miterlimit="10"/>
<path d="M538.163 197.074H498.612" stroke="#E2E8F0" stroke-width="1.5" stroke-miterlimit="10" stroke-linecap="round" stroke-linejoin="round"/>
<path d="M571.016 197.074H543.037V253.732H571.016V197.074Z" fill="white" stroke="#E2E8F0" stroke-width="1.5" stroke-miterlimit="10"/>
<path d="M543.037 218.888H571.016" stroke="#E2E8F0" stroke-width="1.5" stroke-miterlimit="10"/>
<path d="M576.61 197.074H537.06" stroke="#E2E8F0" stroke-width="1.5" stroke-miterlimit="10" stroke-linecap="round" stroke-linejoin="round"/>
<path d="M575.516 294.483H561.683V321.281H575.516V294.483Z" fill="white" stroke="#E2E8F0" stroke-width="1.5" stroke-miterlimit="10" stroke-linecap="round" stroke-linejoin="round"/>
<path d="M473.047 294.483H459.214V321.281H473.047V294.483Z" fill="white" stroke="#E2E8F0" stroke-width="1.5" stroke-miterlimit="10" stroke-linecap="round" stroke-linejoin="round"/>
<path fill-rule="evenodd" clip-rule="evenodd" d="M104.951 199.337L18.3984 160.868L42.4123 113.803L128.449 152.043L128.203 152.523L128.449 152.043L128.964 152.272L104.951 199.337ZM42.9524 115.223L19.9204 160.364L104.411 197.916L127.442 152.776L42.9524 115.223Z" fill="#6E35A2"/>
<path fill-rule="evenodd" clip-rule="evenodd" d="M94.7039 190.14L32.5044 162.496L32.7978 162C32.8697 161.879 32.9325 161.78 32.9759 161.693C33.3755 160.91 33.5639 160.087 33.5639 159.276C33.5628 157.173 32.2954 155.155 30.1249 154.192L30.1237 154.191C29.9022 154.093 29.6705 154.01 29.4284 153.935L28.8164 153.745L42.8774 126.185L43.4221 126.509C43.6367 126.637 43.8514 126.753 44.074 126.852C44.9121 127.224 45.7924 127.4 46.6613 127.4C48.9152 127.399 51.0765 126.217 52.1099 124.19V124.191C52.216 123.984 52.304 123.766 52.385 123.541L52.5883 122.969L114.924 150.674L114.578 151.183C114.441 151.383 114.315 151.584 114.209 151.792L114.21 151.791C113.81 152.573 113.622 153.396 113.622 154.206C113.623 156.311 114.891 158.328 117.061 159.292C117.284 159.392 117.516 159.474 117.758 159.548L118.371 159.739L104.309 187.298L103.764 186.974C103.549 186.846 103.335 186.73 103.112 186.631C102.274 186.259 101.394 186.083 100.525 186.083C98.2709 186.084 96.1083 187.267 95.0762 189.293C95.0316 189.379 94.9883 189.488 94.9323 189.617L94.7039 190.14ZM34.0754 162.013L94.1171 188.698C95.3719 186.374 97.8941 185.018 100.522 185.018C100.522 185.018 100.524 185.018 100.525 185.018C101.558 185.018 102.608 185.228 103.602 185.669L103.604 185.67C103.678 185.703 103.751 185.737 103.823 185.772L116.795 160.348C116.72 160.319 116.646 160.288 116.57 160.255C113.99 159.107 112.48 156.707 112.48 154.206C112.48 153.242 112.705 152.26 113.179 151.333C113.214 151.263 113.251 151.195 113.289 151.128L53.2414 124.44C53.2105 124.509 53.1763 124.578 53.1409 124.648V124.649C51.9123 127.056 49.3422 128.466 46.6636 128.466C46.6636 128.466 46.6624 128.466 46.6613 128.466C45.628 128.466 44.5764 128.256 43.583 127.815C43.5077 127.781 43.4346 127.747 43.3627 127.711L30.3909 153.135C30.4663 153.165 30.5405 153.197 30.6159 153.23C33.1951 154.376 34.7057 156.776 34.7057 159.276C34.7057 160.194 34.5025 161.126 34.0754 162.013ZM73.6747 167.204C73.6735 167.204 73.6735 167.204 73.6724 167.204C72.0316 167.204 70.3624 166.87 68.7833 166.168C64.6854 164.347 62.2865 160.535 62.2877 156.563C62.2877 155.031 62.6439 153.473 63.3963 151.999C65.3488 148.174 69.4307 145.936 73.6861 145.936C73.6861 145.936 73.6872 145.936 73.6884 145.936C75.3302 145.936 76.9984 146.27 78.5775 146.971C82.6764 148.793 85.0742 152.604 85.0742 156.577C85.0742 158.11 84.7168 159.666 83.9644 161.141C82.0131 164.965 77.9301 167.204 73.6747 167.204ZM73.6884 147.002C69.8577 147.003 66.1834 149.014 64.4274 152.457C63.7492 153.786 63.4295 155.184 63.4295 156.563C63.4295 160.139 65.5851 163.568 69.2742 165.206C70.698 165.839 72.196 166.138 73.6724 166.138C77.5042 166.137 81.1784 164.125 82.9333 160.683C83.6116 159.354 83.9313 157.955 83.9324 156.577C83.9313 153.002 81.7756 149.572 78.0865 147.933C76.6627 147.3 75.1647 147.002 73.6884 147.002Z" fill="#6E35A2"/>
<path fill-rule="evenodd" clip-rule="evenodd" d="M452.6 188.202L491.524 145.614L518.111 166.78L479.419 209.114L479.147 208.898L479.419 209.114L479.187 209.367L452.6 188.202ZM517.105 166.854L491.604 146.554L453.607 188.128L479.107 208.427L517.105 166.854Z" fill="#6E35A2"/>
<path fill-rule="evenodd" clip-rule="evenodd" d="M460.215 183.912L488.187 153.306L488.461 153.552C488.528 153.612 488.582 153.664 488.631 153.702C489.073 154.054 489.575 154.294 490.1 154.425C491.463 154.765 492.974 154.377 493.949 153.309L493.95 153.308C494.05 153.199 494.141 153.082 494.229 152.958L494.451 152.643L510.019 165.037L509.721 165.291C509.604 165.392 509.494 165.494 509.394 165.604C509.017 166.016 508.761 166.484 508.62 166.974C508.256 168.246 508.671 169.656 509.816 170.567L509.816 170.567C509.933 170.66 510.059 170.745 510.192 170.827L510.53 171.035L482.496 201.707L482.223 201.43C482.115 201.32 482.005 201.216 481.888 201.123L481.888 201.124C481.446 200.772 480.944 200.532 480.42 200.401C479.057 200.061 477.545 200.449 476.569 201.517C476.469 201.627 476.378 201.744 476.291 201.869L476.068 202.183L460.5 189.789L460.798 189.535C460.916 189.434 461.026 189.332 461.126 189.222C461.502 188.81 461.759 188.342 461.899 187.852C462.264 186.581 461.848 185.169 460.703 184.259C460.655 184.22 460.591 184.178 460.517 184.125L460.215 183.912ZM488.246 154.271L461.244 183.814C462.545 184.898 463.015 186.541 462.59 188.023C462.59 188.023 462.59 188.024 462.589 188.024C462.422 188.607 462.116 189.166 461.67 189.655L461.669 189.656C461.635 189.692 461.601 189.728 461.567 189.763L475.929 201.196C475.96 201.158 475.992 201.121 476.026 201.084C477.187 199.815 478.985 199.352 480.605 199.757C481.229 199.913 481.828 200.199 482.352 200.616C482.392 200.648 482.429 200.679 482.467 200.711L509.472 171.165C509.432 171.136 509.392 171.106 509.353 171.075L509.353 171.074C507.993 169.992 507.496 168.314 507.93 166.803C507.93 166.803 507.93 166.802 507.93 166.802C508.097 166.219 508.404 165.66 508.85 165.171C508.884 165.134 508.918 165.098 508.953 165.063L494.591 153.63C494.559 153.668 494.527 153.704 494.493 153.742C493.333 155.011 491.534 155.474 489.916 155.069C489.321 154.921 488.751 154.655 488.246 154.271ZM478.472 175.765C478.472 175.764 478.472 175.764 478.472 175.764C478.738 174.838 479.224 173.951 479.935 173.174C481.778 171.157 484.634 170.422 487.206 171.066C488.198 171.314 489.149 171.767 489.982 172.43C492.142 174.15 492.93 176.815 492.241 179.215C492.241 179.215 492.241 179.216 492.241 179.217C491.975 180.143 491.489 181.029 490.779 181.807C488.936 183.823 486.08 184.559 483.507 183.915C482.515 183.667 481.565 183.214 480.731 182.55C478.572 180.831 477.783 178.165 478.472 175.765ZM491.551 179.044C492.171 176.883 491.463 174.485 489.518 172.937C488.768 172.34 487.914 171.933 487.021 171.709C484.706 171.131 482.136 171.791 480.478 173.607C479.838 174.307 479.402 175.104 479.162 175.936C478.543 178.098 479.25 180.496 481.195 182.043C481.946 182.641 482.8 183.048 483.692 183.271C486.007 183.85 488.577 183.189 490.236 181.374C490.876 180.673 491.312 179.877 491.551 179.044Z" fill="#6E35A2"/>
<path d="M517.768 77.5443L517.771 77.54C519.554 74.9719 520.016 72.1273 519.111 69.39C518.211 66.6678 515.981 64.1151 512.505 62.0513C506.532 58.5043 499.929 57.9812 492.406 59.6303L490.363 49.3831C499.619 47.0249 509.163 47.388 519.087 53.2805L519.088 53.2805C525.642 57.1711 529.917 62.0934 531.638 67.3386C533.354 72.5675 532.553 78.18 528.835 83.5303C528.835 83.5306 528.834 83.531 528.834 83.5313L528.712 83.7068L528.711 83.708C524.962 89.1036 520.151 91.7525 514.852 92.5072C509.532 93.2647 503.688 92.1172 497.904 89.8478L497.582 89.7214L497.35 89.9782L491.813 96.1111L484.904 92.011L492.531 77.3442L492.896 77.2703C498.989 80.6219 504.083 82.2519 508.196 82.2976C512.375 82.3442 515.537 80.7517 517.646 77.7162C517.647 77.7154 517.647 77.7147 517.648 77.714L517.768 77.5443ZM468.717 109.835L476.535 98.5863L488.358 105.604L480.539 116.855L468.717 109.835Z" stroke="black"/>
<g clip-path="url(#clip0_12936_182658)">
<path d="M308.471 289.1L309.651 341.467H286.307L288.192 289.1H308.471Z" fill="white" stroke="#6E35A2"/>
<path fill-rule="evenodd" clip-rule="evenodd" d="M296.093 198.134L270.689 285.621L279.417 294.272L270.689 304.791L316.95 309.961L296.093 198.134Z" fill="#6E35A2"/>
<path fill-rule="evenodd" clip-rule="evenodd" d="M310.162 343.881H382.104L406.917 187.452L367 184.95L322.162 187.452L296.094 198.134L310.162 343.881Z" fill="#6E35A2"/>
<path fill-rule="evenodd" clip-rule="evenodd" d="M334.316 210.767L367.001 184.95L355.037 145.398L320.314 149.943L334.316 210.767Z" fill="white"/>
<path fill-rule="evenodd" clip-rule="evenodd" d="M327.457 180.974L343.45 161.052L320.314 149.943L327.457 180.974Z" fill="#6E35A2"/>
<path d="M319.449 170.501L319.405 170.999L319.449 170.501C310.578 169.719 304.653 163.91 301.126 155.969C297.594 148.017 296.501 137.985 297.301 128.95C298.102 119.907 301.135 107.532 308.396 97.8252C315.636 88.1486 327.094 81.0966 344.861 82.6649C350.923 83.2003 355.003 85.4476 357.723 88.7549C360.456 92.0778 361.861 96.5241 362.457 101.529C363.372 109.2 362.378 118.022 361.496 125.845C361.224 128.258 360.963 130.576 360.771 132.735C359.98 141.668 354.155 151.519 346.222 158.949C338.286 166.383 328.357 171.288 319.449 170.501Z" fill="white" stroke="#6E35A2"/>
<path fill-rule="evenodd" clip-rule="evenodd" d="M308.256 145.398C308.256 145.398 316.732 146.241 329.318 145.398C329.318 145.398 322.917 153.248 313.431 152.451C311.251 152.269 308.256 145.398 308.256 145.398Z" fill="#6E35A2"/>
<path fill-rule="evenodd" clip-rule="evenodd" d="M367 140.19C389.629 113.16 398.244 107.327 367 85.6849C367 85.6849 363.948 65.1286 337.074 71.7465C295.649 81.9472 303.259 85.6849 301.916 108.23C301.916 108.23 324.247 111.09 342.279 100.569C342.279 100.569 342.905 113.238 350.322 119.705L349.036 133.258L367 140.19Z" fill="#6E35A2"/>
<path d="M365.172 88.7992C365.172 88.7992 375.012 84.4236 375.831 79.8973M367 85.6848C367 85.6848 369.721 80.0145 367 74.1078V85.6848Z" stroke="#6E35A2"/>
<path fill-rule="evenodd" clip-rule="evenodd" d="M351.354 134.126C348.688 141.167 350.967 148.552 356.442 150.621C361.919 152.689 368.521 148.657 371.187 141.616C373.853 134.576 371.575 127.191 366.098 125.122C360.62 123.056 354.021 127.086 351.354 134.126Z" fill="white"/>
<path fill-rule="evenodd" clip-rule="evenodd" d="M373.485 187.452L365.172 166.498L318.787 177.283L331.882 216.739L373.485 187.452Z" fill="#6E35A2"/>
<path fill-rule="evenodd" clip-rule="evenodd" d="M320.314 181.884L346.292 180.497L322.162 187.452L320.314 181.884Z" fill="#9A5CD1"/>
<path fill-rule="evenodd" clip-rule="evenodd" d="M406.917 187.452L412.821 303.216L376.322 322.333L373.484 187.452H406.917Z" fill="#6E35A2"/>
<path fill-rule="evenodd" clip-rule="evenodd" d="M361.017 168.46L348.862 164.676C347.421 164.227 346.615 162.696 347.065 161.254L356.756 130.209C357.207 128.77 358.738 127.967 360.179 128.414L372.335 132.198C373.778 132.648 374.583 134.179 374.132 135.62L364.443 166.665C363.993 168.104 362.46 168.908 361.017 168.46Z" fill="#64748B"/>
<path fill-rule="evenodd" clip-rule="evenodd" d="M364.328 169.489L351.562 165.515C350.119 165.068 349.314 163.537 349.765 162.095L359.456 131.05C359.904 129.611 361.437 128.808 362.88 129.255L375.646 133.229C377.089 133.679 377.894 135.21 377.443 136.649L367.752 167.695C367.304 169.136 365.771 169.939 364.328 169.489Z" fill="#CBD5E1"/>
<path fill-rule="evenodd" clip-rule="evenodd" d="M365.419 135.08C365.102 136.093 364.024 136.66 363.008 136.342C361.994 136.026 361.426 134.949 361.745 133.936C362.059 132.922 363.14 132.357 364.153 132.673C365.169 132.989 365.735 134.066 365.419 135.08Z" fill="#64748B"/>
<mask id="path-172-inside-1_12936_182658" fill="white">
<path fill-rule="evenodd" clip-rule="evenodd" d="M368.578 134.17L380.801 144.84L380.801 144.84L370.375 167.686L370.374 167.686L405.472 298.271L382.834 309.516C360.067 271.007 365.044 170.102 365.044 170.102L365.044 170.102C360.173 162.28 362.097 156.591 366 152.614L368.747 149.558C362.143 144.84 364.713 140.19 364.713 140.19L371.464 148.56C372.835 147.791 374.207 147.153 375.46 146.635C362.216 142.154 365.73 136.013 365.73 136.013L368.102 137.891C367.638 135.729 368.578 134.17 368.578 134.17Z"/>
</mask>
<path fill-rule="evenodd" clip-rule="evenodd" d="M368.578 134.17L380.801 144.84L380.801 144.84L370.375 167.686L370.374 167.686L405.472 298.271L382.834 309.516C360.067 271.007 365.044 170.102 365.044 170.102L365.044 170.102C360.173 162.28 362.097 156.591 366 152.614L368.747 149.558C362.143 144.84 364.713 140.19 364.713 140.19L371.464 148.56C372.835 147.791 374.207 147.153 375.46 146.635C362.216 142.154 365.73 136.013 365.73 136.013L368.102 137.891C367.638 135.729 368.578 134.17 368.578 134.17Z" fill="white"/>
<path d="M380.801 144.84L380.143 145.593L380.53 145.93L381.029 145.813L380.801 144.84ZM368.578 134.17L369.235 133.417L368.337 132.633L367.721 133.654L368.578 134.17ZM380.801 144.84L381.711 145.255L382.557 143.401L380.573 143.866L380.801 144.84ZM370.375 167.686L370.789 168.597L371.129 168.442L371.285 168.101L370.375 167.686ZM370.374 167.686L369.961 166.776L369.188 167.127L369.409 167.946L370.374 167.686ZM405.472 298.271L405.916 299.167L406.65 298.802L406.437 298.012L405.472 298.271ZM382.834 309.516L381.973 310.025L382.447 310.825L383.279 310.411L382.834 309.516ZM365.044 170.102L364.631 169.191L364.075 169.443L364.045 170.053L365.044 170.102ZM365.044 170.102L365.457 171.012L366.496 170.541L365.893 169.573L365.044 170.102ZM366 152.614L366.714 153.315L366.729 153.299L366.744 153.283L366 152.614ZM368.747 149.558L369.49 150.227L370.238 149.395L369.328 148.745L368.747 149.558ZM364.713 140.19L365.491 139.562L364.557 138.404L363.837 139.706L364.713 140.19ZM371.464 148.56L370.686 149.187L371.216 149.845L371.953 149.432L371.464 148.56ZM375.46 146.635L375.842 147.56L378.304 146.542L375.78 145.688L375.46 146.635ZM365.73 136.013L366.351 135.229L365.439 134.507L364.862 135.516L365.73 136.013ZM368.102 137.891L367.481 138.675L369.664 140.402L369.08 137.681L368.102 137.891ZM381.459 144.086L369.235 133.417L367.92 134.924L380.143 145.593L381.459 144.086ZM380.573 143.866L380.573 143.866L381.029 145.813L381.029 145.813L380.573 143.866ZM371.285 168.101L381.711 145.255L379.891 144.424L369.465 167.271L371.285 168.101ZM370.788 168.597L370.789 168.597L369.961 166.776L369.961 166.776L370.788 168.597ZM406.437 298.012L371.34 167.427L369.409 167.946L404.506 298.531L406.437 298.012ZM383.279 310.411L405.916 299.167L405.027 297.376L382.389 308.62L383.279 310.411ZM365.044 170.102C364.045 170.053 364.045 170.053 364.045 170.054C364.045 170.055 364.045 170.056 364.045 170.058C364.045 170.061 364.044 170.066 364.044 170.072C364.043 170.085 364.042 170.103 364.041 170.128C364.039 170.177 364.036 170.251 364.031 170.347C364.022 170.541 364.01 170.828 363.994 171.203C363.963 171.955 363.921 173.06 363.875 174.481C363.783 177.321 363.677 181.42 363.622 186.459C363.511 196.535 363.6 210.374 364.403 225.421C365.205 240.465 366.721 256.735 369.466 271.667C372.208 286.581 376.192 300.245 381.973 310.025L383.695 309.007C378.093 299.532 374.161 286.143 371.433 271.306C368.709 256.488 367.2 240.311 366.4 225.315C365.601 210.322 365.511 196.528 365.622 186.481C365.677 181.458 365.782 177.373 365.874 174.545C365.92 173.131 365.962 172.031 365.993 171.286C366.008 170.913 366.02 170.629 366.029 170.438C366.033 170.343 366.037 170.271 366.039 170.223C366.04 170.199 366.041 170.181 366.042 170.169C366.042 170.163 366.042 170.158 366.042 170.155C366.042 170.154 366.042 170.153 366.042 170.152C366.042 170.152 366.043 170.151 365.044 170.102ZM364.631 169.191L364.631 169.191L365.457 171.013L365.457 171.012L364.631 169.191ZM365.286 151.914C363.227 154.012 361.633 156.621 361.239 159.793C360.845 162.969 361.669 166.575 364.195 170.63L365.893 169.573C363.547 165.807 362.899 162.657 363.224 160.039C363.55 157.417 364.87 155.193 366.714 153.315L365.286 151.914ZM368.003 148.89L365.256 151.946L366.744 153.283L369.49 150.227L368.003 148.89ZM364.713 140.19C363.837 139.706 363.837 139.707 363.837 139.708C363.837 139.708 363.836 139.709 363.836 139.709C363.835 139.71 363.835 139.711 363.834 139.712C363.833 139.715 363.831 139.717 363.83 139.72C363.827 139.726 363.823 139.733 363.819 139.741C363.81 139.758 363.799 139.779 363.787 139.804C363.762 139.855 363.73 139.925 363.693 140.011C363.621 140.184 363.531 140.426 363.449 140.729C363.285 141.335 363.152 142.188 363.259 143.208C363.476 145.29 364.669 147.874 368.165 150.372L369.328 148.745C366.22 146.524 365.396 144.424 365.248 143.001C365.171 142.269 365.268 141.665 365.38 141.251C365.436 141.044 365.495 140.887 365.537 140.787C365.558 140.737 365.574 140.702 365.584 140.682C365.588 140.673 365.591 140.667 365.592 140.666C365.593 140.665 365.592 140.665 365.592 140.667C365.591 140.667 365.591 140.668 365.59 140.669C365.59 140.67 365.59 140.671 365.589 140.671C365.589 140.672 365.589 140.672 365.589 140.672C365.588 140.673 365.588 140.674 364.713 140.19ZM372.242 147.932L365.491 139.562L363.934 140.818L370.686 149.187L372.242 147.932ZM375.078 145.711C373.796 146.241 372.387 146.896 370.975 147.687L371.953 149.432C373.283 148.687 374.617 148.065 375.842 147.56L375.078 145.711ZM365.73 136.013C364.862 135.516 364.862 135.517 364.861 135.518C364.861 135.518 364.86 135.519 364.86 135.52C364.859 135.521 364.859 135.522 364.858 135.524C364.856 135.527 364.854 135.53 364.852 135.534C364.848 135.542 364.843 135.551 364.837 135.561C364.826 135.583 364.812 135.61 364.795 135.644C364.762 135.711 364.721 135.802 364.676 135.916C364.585 136.143 364.48 136.462 364.405 136.856C364.255 137.649 364.229 138.745 364.691 139.991C365.62 142.498 368.393 145.3 375.139 147.583L375.78 145.688C369.282 143.489 367.19 140.98 366.566 139.296C366.251 138.447 366.276 137.728 366.37 137.229C366.418 136.977 366.484 136.781 366.534 136.655C366.559 136.592 366.58 136.547 366.592 136.522C366.598 136.509 366.602 136.502 366.603 136.5C366.604 136.499 366.604 136.499 366.603 136.501C366.603 136.501 366.602 136.503 366.601 136.504C366.601 136.505 366.6 136.506 366.6 136.507C366.599 136.507 366.599 136.508 366.599 136.508C366.598 136.509 366.598 136.51 365.73 136.013ZM368.723 137.107L366.351 135.229L365.109 136.797L367.481 138.675L368.723 137.107ZM368.578 134.17C367.721 133.654 367.721 133.655 367.721 133.655C367.721 133.655 367.72 133.655 367.72 133.656C367.72 133.656 367.72 133.657 367.719 133.657C367.719 133.658 367.718 133.66 367.717 133.661C367.715 133.664 367.714 133.667 367.712 133.67C367.708 133.677 367.703 133.686 367.697 133.696C367.686 133.716 367.671 133.742 367.654 133.774C367.62 133.838 367.576 133.927 367.526 134.038C367.426 134.259 367.304 134.572 367.2 134.961C366.992 135.739 366.852 136.832 367.124 138.1L369.08 137.681C368.888 136.787 368.987 136.021 369.132 135.479C369.205 135.208 369.288 134.996 369.35 134.857C369.381 134.788 369.407 134.738 369.422 134.709C369.43 134.695 369.435 134.685 369.437 134.681C369.438 134.679 369.439 134.679 369.438 134.68C369.438 134.68 369.437 134.681 369.437 134.682C369.436 134.683 369.436 134.683 369.436 134.684C369.435 134.684 369.435 134.685 369.435 134.685C369.435 134.685 369.435 134.686 369.435 134.686C369.434 134.686 369.434 134.687 368.578 134.17Z" fill="#6E35A2" mask="url(#path-172-inside-1_12936_182658)"/>
<path fill-rule="evenodd" clip-rule="evenodd" d="M310.162 343.881L296.094 198.134L318.788 343.881H310.162Z" fill="#9A5CD1"/>
</g>
<rect x="227" y="342" width="228" height="2" fill="#E2E8F0"/>
<defs>
<clipPath id="clip0_12936_182658">
<rect width="167.559" height="274" fill="white" transform="translate(270.682 70)"/>
</clipPath>
</defs>
</svg>
