<?xml version="1.0" encoding="utf-8"?>
<!-- Generator: Adobe Illustrator 26.0.1, SVG Export Plug-In . SVG Version: 6.00 Build 0)  -->
<svg version="1.1" id="Layer_1" xmlns="http://www.w3.org/2000/svg" xmlns:xlink="http://www.w3.org/1999/xlink" x="0px" y="0px"
	 viewBox="0 0 683 665" style="enable-background:new 0 0 683 665;" xml:space="preserve">
<style type="text/css">
	.st0{fill:#FFFFFF;filter:url(#Adobe_OpacityMaskFilter);}
	.st1{mask:url(#mask0_12578_347732_00000132074884252101170830000006804795417989997971_);}
	.st2{fill-rule:evenodd;clip-rule:evenodd;fill:#A06DAE;}
	.st3{fill-rule:evenodd;clip-rule:evenodd;fill:#E9F9E8;}
	.st4{fill-rule:evenodd;clip-rule:evenodd;fill:#FFFFFE;}
	.st5{fill-rule:evenodd;clip-rule:evenodd;fill:#1A282B;}
	.st6{fill-rule:evenodd;clip-rule:evenodd;fill:#0D9108;}
	.st7{fill:#FFFFFF;filter:url(#Adobe_OpacityMaskFilter_00000109745949874026122330000015470962487272222654_);}
	.st8{mask:url(#mask1_12578_347732_00000170237690911714917740000002862316511324414645_);}
	.st9{fill-rule:evenodd;clip-rule:evenodd;fill:#0C5E08;}
	.st10{fill:#FFFFFF;filter:url(#Adobe_OpacityMaskFilter_00000173875384285548443560000005096252879428710330_);}
	.st11{mask:url(#mask2_12578_347732_00000119076802447489319090000011649217207146407081_);}
	.st12{fill-rule:evenodd;clip-rule:evenodd;fill:#465455;}
	.st13{fill-rule:evenodd;clip-rule:evenodd;fill:#70706D;}
	.st14{fill-rule:evenodd;clip-rule:evenodd;fill:#6EBD92;}
	.st15{fill:#FFFFFF;filter:url(#Adobe_OpacityMaskFilter_00000062183388207244010310000014932572410070205063_);}
	.st16{mask:url(#mask3_12578_347732_00000130645431062285982570000009948142855494647724_);}
	.st17{fill-rule:evenodd;clip-rule:evenodd;fill:#388D65;}
	.st18{fill:#FFFFFF;filter:url(#Adobe_OpacityMaskFilter_00000005948763999010554970000011140915347092528772_);}
	.st19{mask:url(#mask4_12578_347732_00000037653205337311501390000007405444841520946574_);}
	.st20{fill-rule:evenodd;clip-rule:evenodd;fill:#92938F;}
	.st21{fill:#FFFFFF;filter:url(#Adobe_OpacityMaskFilter_00000003077950651857989430000007220698402150650015_);}
	.st22{mask:url(#mask5_12578_347732_00000145746344483502366870000008314203862891975576_);}
	.st23{fill-rule:evenodd;clip-rule:evenodd;fill:#824D94;}
	.st24{fill-rule:evenodd;clip-rule:evenodd;fill:#E7E7E7;}
	.st25{fill-rule:evenodd;clip-rule:evenodd;fill:#343434;}
	.st26{clip-path:url(#SVGID_00000115511562069469753420000010040955229911256240_);}
	.st27{fill:#FFFFFF;}
	.st28{fill-rule:evenodd;clip-rule:evenodd;fill:#DADADA;}
	.st29{fill:#FFFFFF;filter:url(#Adobe_OpacityMaskFilter_00000168096725832346609140000011342099484150801838_);}
	.st30{mask:url(#mask6_12578_347732_00000148631159323724726080000012038146471068541065_);}
	.st31{fill-rule:evenodd;clip-rule:evenodd;fill:#FFFFFF;}
	.st32{fill-rule:evenodd;clip-rule:evenodd;fill:#FFCB83;}
	.st33{fill-rule:evenodd;clip-rule:evenodd;fill:#E6A748;}
	.st34{fill-rule:evenodd;clip-rule:evenodd;fill:#EEFBFF;}
	.st35{fill-rule:evenodd;clip-rule:evenodd;fill:#6E35A2;}
	.st36{fill-rule:evenodd;clip-rule:evenodd;fill:#FF6E53;}
</style>
<defs>
	<filter id="Adobe_OpacityMaskFilter" filterUnits="userSpaceOnUse" x="0" y="0.9" width="682.9" height="654.3">
		<feColorMatrix  type="matrix" values="1 0 0 0 0  0 1 0 0 0  0 0 1 0 0  0 0 0 1 0"/>
	</filter>
</defs>
<mask maskUnits="userSpaceOnUse" x="0" y="0.9" width="682.9" height="654.3" id="mask0_12578_347732_00000132074884252101170830000006804795417989997971_">
	<path class="st0" d="M0,0.9h682.9v654.3H0V0.9z"/>
</mask>
<g class="st1">
	<path class="st2" d="M89.6,60.3c0.3-0.3,0.6-0.6,0.9-0.8c85.3-76.8,198.6-80.3,281.1,2.4c43,43.1,119.4,34.8,174,50.4
		c188.4,53.7,155.8,309.4,62.8,433c-84,111.5-265.9,136.7-388.2,81.9c-107.4-48.2-183.1-156-210-268.6c-2.7-11.3-4.9-22.7-6.6-34.2
		C-10.5,228.6,16.7,126.7,89.6,60.3z"/>
	<path class="st3" d="M358.6,655.2c-48.9,0-97.1-9.4-138.4-28c-32.7-14.7-62.4-34.8-88.7-59c-0.1-9,0.3-15.1,0.3-15.1
		s25.6-37.8,30.4-56.5c1.8-7,4.4-15.6,6.7-24.1c2.3,2.5,4.8,2.8,6,2.8c0,0,0,0,0,0c0.4,0,0.7,0,0.7,0c0.3,0,0.5-0.2,0.6-0.5
		c0.5-1.5,1.8-3.6,3.4-6c2.4-3.7,5.4-8.1,7.9-12.6c2-3.7,3.7-7.4,4.2-10.8h87.7v-0.8v0.8c8.9,0,16.1-7.2,16.1-16.1V132
		c0-8.9-7.2-16.1-16.1-16.1H121c-8.9,0-16.1,7.2-16.1,16.1v164.6c-2.4,1-9.9,4.2-16.2,7.3c0,0,0,0,0,0c-3.3,1.6-6.2,3.2-8.1,4.4
		c-6.2,4.2-9.6,34.2-13.3,49.2c-3.8,15-8.5,17.7-10.1,30.4c-1.5,11.8-1.1,43.9-3.6,67.6c-0.2,1.8-0.4,3.6-0.6,5.3
		c-0.2,1.9-0.5,3.7-0.7,5.6c-18.9-34.1-33-70.7-41.9-107.9c-2.7-11.3-4.9-22.7-6.6-34.2C1.2,308.2,0,291.8,0,275.4
		c0-80.3,29-159.9,89.6-215c0.3-0.3,0.6-0.6,0.9-0.8C133.3,21,183.2,0.9,232.6,0.9c49.1,0,97.9,19.8,139,61
		c7.8,7.8,16.6,13.9,26.2,18.8l16.7,62.8l40.9-10.9l-9.8-36.7c9.2,1.8,18.6,3.2,28.1,4.5c1.8,1.9,4.4,3.2,7.2,3.2
		c1.9,0,3.7-0.6,5.3-1.5c20.8,2.7,41.3,5.2,59.4,10.4c4.7,1.3,9.3,2.8,13.7,4.4c-27.8,0.5-41.6,15.1-44.8,33h-92.8
		c-42.6,0-77.2,34.6-77.2,77.2v181.7c0,42.7,34.6,77.2,77.2,77.2h59.6c0,0,1.5,0,4.1,0c18.3,0,93,0,120.2,0c3.3,0,6.6-0.4,9.4-0.9
		c13.6-2,26-7.6,36.2-15.7c-11.8,28.2-26.3,54.2-42.8,76C552.8,619.2,454.3,655.2,358.6,655.2z M680.6,356.7v-77.8
		c1.5,12.4,2.3,25.1,2.3,38C682.9,330,682.1,343.4,680.6,356.7z"/>
</g>
<path class="st4" d="M603.4,485.1H421.7c-42.2,0-76.4-34.2-76.4-76.4V227c0-42.2,34.2-76.4,76.4-76.4h181.7
	c42.2,0,76.4,34.2,76.4,76.4v181.7C679.8,450.9,645.6,485.1,603.4,485.1z"/>
<path class="st5" d="M603.4,485.1v-0.8H421.7c-20.9,0-39.8-8.5-53.4-22.1c-13.7-13.7-22.1-32.6-22.1-53.4V227
	c0-20.9,8.5-39.8,22.1-53.4c13.7-13.7,32.6-22.1,53.4-22.1h181.7c20.9,0,39.8,8.5,53.4,22.1c13.7,13.7,22.1,32.6,22.1,53.4v181.7
	c0,20.9-8.5,39.8-22.1,53.4c-13.7,13.7-32.6,22.1-53.4,22.1v1.7c42.6,0,77.2-34.6,77.2-77.2V227c0-42.7-34.6-77.2-77.2-77.2H421.7
	c-42.6,0-77.2,34.6-77.2,77.2v181.7c0,42.7,34.6,77.2,77.2,77.2h181.7V485.1z"/>
<path class="st2" d="M447.7,297.9c-5.1-8.4-29.4-8.2-31.6-4.5c0,0,12.1,39,25.5,35C455.1,324.3,447.7,297.9,447.7,297.9z"/>
<path class="st5" d="M447.7,297.9l0.7-0.4c-1.7-2.8-5.1-4.6-9-5.7c-3.9-1.1-8.4-1.6-12.5-1.6c-2.8,0-5.3,0.2-7.3,0.7
	c-1,0.2-1.9,0.5-2.6,0.8c-0.7,0.3-1.3,0.7-1.7,1.3c-0.1,0.2-0.1,0.4-0.1,0.7c0,0,2.7,8.9,7.1,17.7c2.2,4.4,4.7,8.9,7.6,12.3
	c1.4,1.7,2.9,3.1,4.6,4.2c1.6,1,3.3,1.6,5.1,1.6c0.7,0,1.5-0.1,2.2-0.3c3.5-1,5.7-3.5,7-6.5c1.3-3,1.7-6.6,1.7-10.1
	c0-7.6-2-14.8-2-14.9l-0.1-0.2L447.7,297.9l-0.8,0.2c0,0,0,0.1,0.1,0.3c0.4,1.4,1.9,7.7,1.9,14.1c0,3.3-0.4,6.7-1.6,9.4
	c-1.2,2.7-3,4.7-5.9,5.6c-0.6,0.2-1.2,0.3-1.7,0.3c-1.4,0-2.8-0.5-4.2-1.4c-2.5-1.6-4.9-4.4-7.2-7.9c-3.3-5.1-6.2-11.5-8.2-16.6
	c-1-2.5-1.8-4.8-2.3-6.3c-0.3-0.8-0.5-1.4-0.6-1.9c-0.1-0.4-0.2-0.7-0.2-0.7l-0.8,0.2l0.7,0.4c0.1-0.1,0.4-0.4,1-0.7
	c0.8-0.4,2.1-0.7,3.7-1c1.6-0.2,3.5-0.4,5.5-0.4c3.9,0,8.3,0.5,12,1.6c3.7,1.1,6.8,2.8,8.1,5L447.7,297.9l-0.8,0.2L447.7,297.9z"/>
<path class="st6" d="M418.7,317.7c0,0-2.6,2.9-2.6,7.4c0,3.6,6.9,76.3,28.4,101.6c4.5,5.3,9.6,8.5,15.5,8.6
	c18.1,0.2,26.9-14.2,38.4-47.6c1.4-4.2,2.9-8.6,4.5-13.4c11.2-34.4,25-106.3,25-106.3s-24.5,5.7-39,20.1
	c-6.3,6.3-12.9,24.1-17.2,37.2c-2.1,6.4-3.6,11.7-4.2,14c-0.2,0.7-0.3,1.1-0.3,1.1c-0.6-2.2-1.5-4.4-2.6-6.5l0-0.1l-0.1-0.2
	c-4.4-8.4-11.5-15.8-11.5-15.8l-5.3-20c0,0-1.9,3.7-10.3,4.9c-8.5,1.3-21.3-9.5-21.3-9.5L418.7,317.7z"/>
<defs>
	
		<filter id="Adobe_OpacityMaskFilter_00000103244071718607658240000006242112909519539597_" filterUnits="userSpaceOnUse" x="445.3" y="317.3" width="36.4" height="117.1">
		<feColorMatrix  type="matrix" values="1 0 0 0 0  0 1 0 0 0  0 0 1 0 0  0 0 0 1 0"/>
	</filter>
</defs>
<mask maskUnits="userSpaceOnUse" x="445.3" y="317.3" width="36.4" height="117.1" id="mask1_12578_347732_00000170237690911714917740000002862316511324414645_">
	<path style="fill:#FFFFFF;filter:url(#Adobe_OpacityMaskFilter_00000103244071718607658240000006242112909519539597_);" d="
		M481.8,317.3c-1.6,19.4-2.3,46-2.6,73.2l0,3.6c0,2.4,0,4.9,0,7.3l0,3.6c0,1.2,0,2.4,0,3.6c0,5.7,0,11.4,0.1,17
		c-2.3,2.6-4.7,4.6-7.4,6c-3.4,1.8-7.1,2.7-11.5,2.7l-0.4,0h0c-5.4-0.1-10.2-3-14.6-8c9.2-2.8,19.5-9.7,26-26.1
		c9.8-25.1,1.9-48.7-3.2-59.9c0.1-0.2,0.1-0.5,0.3-0.9c0.6-2.2,2.1-7.5,4.2-13.9c0.2-0.5,0.3-1,0.5-1.5
		C475.9,321.4,478.9,319.2,481.8,317.3z"/>
</mask>
<g class="st8">
	<path class="st9" d="M445.3,434.4h36.4V317.3h-36.4V434.4z"/>
</g>
<path class="st5" d="M418.7,317.7l-0.6-0.5c-0.1,0.1-2.8,3.2-2.8,7.9c0,0.5,0.1,2,0.3,4.5c0.8,8.4,3.1,27.2,7.6,46.7
	c4.5,19.5,11.1,39.7,20.6,51h0c4.6,5.4,9.9,8.8,16.1,8.9l0,0h0.4c4.6,0,8.6-0.9,12.3-2.9c5.5-2.9,10-8,14.2-15.5
	c4.2-7.5,8.1-17.3,12.4-29.7c1.4-4.2,2.9-8.6,4.5-13.4c11.2-34.5,25-106.4,25-106.4c0.1-0.3,0-0.6-0.2-0.8c-0.2-0.2-0.5-0.3-0.8-0.2
	c-0.1,0-24.6,5.7-39.4,20.3c-3.3,3.3-6.6,9.4-9.6,16.3c-3,6.9-5.7,14.7-7.8,21.2c-2.1,6.5-3.6,11.7-4.2,14l0,0
	c-0.2,0.7-0.3,1.1-0.3,1.1l0.8,0.2l0.8-0.2c-0.6-2.2-1.5-4.5-2.6-6.7l-0.7,0.4l0.7-0.4l0-0.1l0,0l-0.1-0.2l0,0
	c-4.5-8.5-11.6-16-11.6-16l-0.6,0.6l0.8-0.2l-5.3-20c-0.1-0.3-0.4-0.6-0.7-0.6c-0.3,0-0.7,0.1-0.8,0.4l0,0c-0.1,0.2-2,3.3-9.7,4.5
	c-0.4,0.1-0.9,0.1-1.4,0.1c-3.9,0-8.8-2.3-12.6-4.7c-1.9-1.2-3.6-2.4-4.8-3.2c-0.6-0.4-1.1-0.8-1.4-1.1c-0.3-0.3-0.5-0.4-0.5-0.4
	c-0.3-0.2-0.6-0.3-0.9-0.1c-0.3,0.2-0.5,0.5-0.4,0.8l2.6,24.4L418.7,317.7l-0.6-0.5L418.7,317.7l0.8-0.1l-2.6-24.4l-0.8,0.1
	l-0.5,0.6c0,0,2.9,2.4,6.9,4.9c4,2.4,9,4.9,13.5,4.9c0.5,0,1.1,0,1.6-0.1c8.7-1.3,10.8-5.2,10.9-5.4l-0.7-0.4l-0.8,0.2l5.3,20
	l0.2,0.4c0,0,0.1,0.1,0.3,0.3c1.4,1.5,7.3,8.1,11.1,15.3l0.7-0.4l-0.7,0.4l0.1,0.2l0,0.1l0,0c1.1,2.1,2,4.3,2.5,6.3
	c0.1,0.4,0.4,0.6,0.8,0.6c0.4,0,0.7-0.2,0.8-0.6c0,0,0.1-0.4,0.3-1.2l-0.8-0.2l0.8,0.2c0.6-2.2,2.1-7.5,4.2-13.9
	c2.1-6.5,4.8-14.3,7.8-21.1c2.9-6.8,6.2-12.8,9.2-15.8c7.1-7.1,16.8-12.1,24.6-15.2c3.9-1.6,7.4-2.7,9.9-3.5
	c1.2-0.4,2.3-0.7,2.9-0.8c0.7-0.2,1.1-0.3,1.1-0.3l-0.2-0.8l-0.8-0.2c0,0-0.2,1.1-0.6,3.1c-2.8,14.2-14.6,73-24.4,103
	c-1.5,4.8-3,9.2-4.5,13.4c-5.7,16.5-10.8,28.4-16.5,36c-2.9,3.8-5.9,6.5-9.3,8.3c-3.4,1.8-7.1,2.7-11.5,2.7l-0.4,0h0
	c-5.5-0.1-10.4-3.1-14.8-8.3v0c-5.2-6.2-9.7-15.4-13.3-25.8c-5.5-15.6-9.2-33.7-11.5-48.4c-1.2-7.3-2-13.7-2.5-18.5
	c-0.3-2.4-0.5-4.3-0.6-5.8c-0.1-1.4-0.2-2.4-0.2-2.7c0-2,0.6-3.8,1.2-5c0.3-0.6,0.6-1.1,0.8-1.4c0.1-0.2,0.2-0.3,0.3-0.4l0.1-0.1
	l0,0c0.2-0.2,0.2-0.4,0.2-0.6L418.7,317.7z"/>
<path class="st5" d="M475.5,364.3c0.5,2.7,0.8,5.4,0.8,8.1c0,4.1-0.7,8.2-2.5,11.9c-0.2,0.4,0,0.9,0.4,1.1c0.4,0.2,0.9,0,1.1-0.4
	c2-4,2.7-8.3,2.7-12.6c0-2.8-0.3-5.7-0.9-8.4c-0.1-0.4-0.5-0.7-1-0.7S475.5,363.8,475.5,364.3z"/>
<path class="st5" d="M466.5,340.9c3.5,6,6.3,12.6,8.1,19.3c0.1,0.4,0.6,0.7,1,0.6c0.4-0.1,0.7-0.6,0.6-1c-1.8-6.9-4.6-13.6-8.3-19.7
	c-0.2-0.4-0.7-0.5-1.1-0.3C466.4,340,466.3,340.5,466.5,340.9z"/>
<path class="st5" d="M479.5,348.7c0-0.1-0.7-1.9-2.3-3.9c-1.6-2-4.1-4.3-7.8-5.2c-0.4-0.1-0.9,0.2-1,0.6c-0.1,0.4,0.2,0.9,0.6,1
	c3.2,0.7,5.4,2.7,6.8,4.6c0.7,0.9,1.2,1.8,1.5,2.5c0.2,0.3,0.3,0.6,0.4,0.8l0.1,0.2l0,0.1c0.2,0.4,0.6,0.6,1.1,0.5
	C479.5,349.6,479.7,349.2,479.5,348.7z"/>
<path class="st5" d="M444,324.1c1.7-0.9,3.3-2.1,4.8-3.4c0.3-0.3,0.4-0.8,0.1-1.2c-0.3-0.3-0.8-0.4-1.2-0.1
	c-1.4,1.2-2.9,2.3-4.5,3.1c-0.4,0.2-0.6,0.7-0.3,1.1C443.1,324.2,443.6,324.3,444,324.1z"/>
<path class="st5" d="M418.1,318.3c4.4,4.7,10.6,8.1,17.1,8.1c1.8,0,3.6-0.3,5.4-0.8c0.4-0.1,0.7-0.6,0.5-1c-0.1-0.4-0.6-0.7-1-0.5
	c-1.6,0.5-3.2,0.8-4.9,0.8c-5.9,0-11.8-3.2-15.9-7.6c-0.3-0.3-0.8-0.4-1.2,0C417.8,317.4,417.8,317.9,418.1,318.3z"/>
<path class="st2" d="M464.5,333.7l0.1,0.2L464.5,333.7L464.5,333.7z"/>
<path class="st5" d="M464.5,333.7l-0.7,0.4l0.1,0.2c0.2,0.4,0.7,0.5,1.1,0.3c0.4-0.2,0.5-0.7,0.3-1.1l-0.1-0.2
	c-0.1-0.2-0.3-0.4-0.6-0.4c-0.3,0-0.5,0-0.7,0.2l0,0c-0.3,0.3-0.4,0.7-0.1,1.1L464.5,333.7l0.5,0.6l0,0L464.5,333.7l-0.7,0.4
	l0.1,0.2l0.7-0.4l0.7-0.4l-0.1-0.2L464.5,333.7l0.5,0.6L464.5,333.7z"/>
<path class="st6" d="M624.2,481.9c0,0,3.1-24.3,5-32.3c8.5-35.8,38.3-118.7,33.5-143.3c-4.9-25.2-35.2-47.3-84-49.7
	c-45.2-2.3-82.5,13.8-91.5,32.4c-8.5,17.8-8.2,140.6-6,196.1c0,0,93.2,0,124.3,0C615.4,485.1,624.2,481.9,624.2,481.9z"/>
<defs>
	
		<filter id="Adobe_OpacityMaskFilter_00000133515767126828060480000004187558897199794089_" filterUnits="userSpaceOnUse" x="495.7" y="327.1" width="152.2" height="157.2">
		<feColorMatrix  type="matrix" values="1 0 0 0 0  0 1 0 0 0  0 0 1 0 0  0 0 0 1 0"/>
	</filter>
</defs>
<mask maskUnits="userSpaceOnUse" x="495.7" y="327.1" width="152.2" height="157.2" id="mask2_12578_347732_00000119076802447489319090000011649217207146407081_">
	<path style="fill:#FFFFFF;filter:url(#Adobe_OpacityMaskFilter_00000133515767126828060480000004187558897199794089_);" d="
		M624.2,481.9c0,0,3.1-24.3,5-32.3c8.5-35.8,38.3-118.7,33.5-143.3c-4.9-25.2-35.2-47.3-84-49.7c-45.2-2.3-82.5,13.8-91.5,32.4
		c-8.5,17.8-8.2,140.6-6,196.1c0,0,93.2,0,124.3,0C615.4,485.1,624.2,481.9,624.2,481.9z"/>
</mask>
<g class="st11">
	<path class="st6" d="M551.2,484.3c-11.9-6-22.4-17.3-22.4-17.3s0.4-5.5-8.3-17.5c-8.7-12-24.7-122.5-24.7-122.5l69.8,87
		c0,0,25.5-48.1,49-80.2l33.4,29c-13.9,57.5-54.5,108-73.8,121.4c-0.4,0-0.8,0-1.2,0C566,484.3,558.6,484.3,551.2,484.3z"/>
</g>
<path class="st5" d="M624.2,481.9l0.8,0.1c0,0,0.2-1.5,0.5-3.9c1-7.2,3-22.4,4.4-28.3c3.9-16.5,12.4-43.2,19.9-69.5
	c7.5-26.3,14.1-52.3,14.1-67.6c0-2.4-0.2-4.6-0.5-6.5c-2.5-12.9-11.5-24.9-25.9-33.9c-14.4-9.1-34.3-15.2-58.8-16.4
	c-2.9-0.1-5.7-0.2-8.5-0.2c-20.8,0-39.5,3.8-54.2,9.8c-14.6,6-25.2,14.3-29.5,23.3c-1.5,3.1-2.6,8.7-3.5,16.4
	c-2.8,23-3.8,64.1-3.8,103.6c0,28.8,0.5,56.8,1.3,76.4c0,0.4,0.4,0.8,0.8,0.8c0,0,1.5,0,4.1,0c18.3,0,93,0,120.2,0
	c10,0,18.9-3.3,19-3.3c0.3-0.1,0.5-0.4,0.5-0.7L624.2,481.9l-0.3-0.8c0,0-0.1,0-0.4,0.1c-1.8,0.6-9.6,3.1-18,3.1
	c-15.5,0-46.6,0-73.8,0c-13.6,0-26.2,0-35.4,0c-4.6,0-8.4,0-11,0c-2.6,0-4.1,0-4.1,0v0.8l0.8,0c-0.8-19.6-1.3-47.6-1.3-76.4
	c0-26.4,0.5-53.4,1.6-75.3c0.6-10.9,1.3-20.6,2.2-28.2c0.9-7.6,2.1-13.2,3.4-15.9c4-8.4,14.3-16.5,28.7-22.5
	c14.4-5.9,33-9.7,53.5-9.7c2.8,0,5.6,0.1,8.5,0.2c24.3,1.2,43.9,7.3,58,16.2c14.1,8.9,22.7,20.5,25.2,32.9c0.3,1.7,0.5,3.8,0.5,6.2
	c0,14.9-6.5,40.8-14,67.1c-7.5,26.3-16,53-20,69.6c-1,4-2.2,12.1-3.2,19.2c-1,7.1-1.8,13.2-1.8,13.2L624.2,481.9l-0.3-0.8
	L624.2,481.9z"/>
<path class="st4" d="M598.4,261.5c0,0-24.3,10.4-50.7,1.8c0,0,3.4-8.2,3.4-15c0-3.4-0.8-6.5-3.4-7.9c0,0,1.2-1.3,3.2-3.4h0
	c10-10.2,40.3-38.7,50.1-21.7C601.1,215.3,590.8,216.3,598.4,261.5z"/>
<path class="st5" d="M598.4,261.5l-0.3-0.8l-0.1,0.1c-1.3,0.6-12.9,5.1-28.1,5.1c-6.7,0-14.2-0.9-21.8-3.4l-0.3,0.8l0.8,0.3
	c0,0,3.4-8.3,3.5-15.4v0v-0.1c0-1.8-0.2-3.4-0.8-4.9c-0.6-1.5-1.6-2.8-3-3.6l-0.4,0.7l0.6,0.6c0,0,0.3-0.3,0.8-0.9
	c0.5-0.6,1.3-1.4,2.3-2.5L551,237v0.8h0c0.2,0,0.4-0.1,0.6-0.2c3.9-3.9,10.8-10.7,18.4-16.4c3.8-2.9,7.7-5.5,11.5-7.3
	c3.8-1.9,7.4-3,10.5-3c1.8,0,3.3,0.4,4.7,1.1c1.4,0.8,2.6,2,3.6,3.8l0.7-0.4l-0.1-0.8c-0.2,0-1.9,0.3-3.4,2.9
	c-1.5,2.6-2.9,7.3-2.9,16.3c0,6.7,0.8,15.7,2.8,28L598.4,261.5l-0.3-0.8L598.4,261.5l0.8-0.1c-2.1-12.2-2.8-21.1-2.8-27.7
	c0-8.9,1.4-13.3,2.6-15.5c0.6-1.1,1.2-1.6,1.6-1.9c0.2-0.1,0.3-0.2,0.4-0.2l0.1,0h0l-0.1-0.5l0,0.5l0,0l-0.1-0.5l0,0.5
	c0.3,0,0.5-0.2,0.7-0.4c0.1-0.2,0.1-0.5,0-0.8c-1.2-2-2.6-3.4-4.3-4.4c-1.7-0.9-3.6-1.3-5.5-1.3c-3.5,0-7.3,1.2-11.2,3.2
	c-11.8,5.8-24.5,18.1-30.4,24l0.6,0.6v-0.8h0c-0.2,0-0.4,0.1-0.6,0.2c-2,2.1-3.2,3.4-3.2,3.4c-0.2,0.2-0.2,0.4-0.2,0.7
	c0,0.2,0.2,0.5,0.4,0.6c1.1,0.6,1.8,1.6,2.3,2.8c0.5,1.2,0.7,2.7,0.7,4.3v0.1c0,3.3-0.8,7-1.7,9.8c-0.4,1.4-0.8,2.7-1.1,3.5
	c-0.2,0.4-0.3,0.8-0.4,1c-0.1,0.2-0.1,0.4-0.1,0.4c-0.1,0.2-0.1,0.5,0,0.7c0.1,0.2,0.3,0.4,0.5,0.4c7.8,2.6,15.4,3.5,22.3,3.5
	c16.6,0,28.9-5.3,28.9-5.3c0.4-0.2,0.6-0.5,0.5-0.9L598.4,261.5z"/>
<path class="st5" d="M570.9,230c0,0-4,14.7-19.7,18.3c0-3.4-0.8-6.5-3.4-7.9c0,0,1.2-1.3,3.2-3.4h0C560.6,233.2,570.9,230,570.9,230
	z"/>
<path class="st4" d="M608,191.3c10.4-41.6-12.1-55.9-26.2-61.4c-22.7-8.7-51.4,1.2-58.1,24.3c-6.7,23.1-0.7,28.4-1,37.9
	c-0.2,6.6-4.6,9.9,0.2,26.6c3.2,11,9.1,23.6,16.1,24c18.8,1.1,36.5-9.6,35.5-14.6L608,191.3z"/>
<path class="st5" d="M608.8,191.5c1.9-7.5,2.7-14.1,2.7-20c0-13.5-4.4-23-10.3-29.7c-5.9-6.6-13.3-10.4-19.1-12.7
	c-5.6-2.2-11.6-3.2-17.5-3.2c-9.2,0-18.3,2.5-25.8,7.3c-7.5,4.8-13.3,11.8-15.9,20.8c-2.4,8.4-3.2,14.5-3.2,19.3
	c0,4.1,0.6,7.3,1.1,10.1c0.6,2.8,1.1,5.3,1.1,8c0,0.2,0,0.5,0,0.7c-0.1,2-0.6,3.8-1,5.8c-0.5,2-1,4.4-1,7.4c0,3.4,0.6,7.7,2.3,13.6
	c1.6,5.5,3.9,11.5,6.7,16.2c1.4,2.3,2.9,4.4,4.6,5.8c1.7,1.5,3.5,2.5,5.5,2.6c0.9,0.1,1.8,0.1,2.7,0.1c8.8,0,17.1-2.4,23.3-5.4
	c3.1-1.5,5.6-3.2,7.5-4.8c0.9-0.8,1.6-1.6,2.2-2.4c0.5-0.8,0.8-1.6,0.8-2.5c0-0.2,0-0.4-0.1-0.6c-0.1-0.4-0.5-0.7-1-0.7
	c-0.4,0.1-0.7,0.5-0.7,1l0,0.3c0,0.4-0.2,0.9-0.6,1.6c-1.4,2.3-5.6,5.3-11.3,7.7c-5.7,2.4-12.8,4.2-20.2,4.2c-0.9,0-1.8,0-2.6-0.1
	c-1.5-0.1-3-0.8-4.5-2.2c-2.2-2-4.4-5.3-6.2-9.1c-1.9-3.8-3.4-8.1-4.6-12.2c-1.7-5.8-2.2-9.9-2.2-13.1c0-2.9,0.5-5.1,0.9-7.1
	c0.5-2,1-3.9,1.1-6.1c0-0.3,0-0.5,0-0.7c0-3-0.6-5.5-1.1-8.3c-0.6-2.8-1.1-5.8-1.1-9.8c0-4.6,0.7-10.6,3.1-18.8
	c2.5-8.6,8-15.3,15.2-19.8c7.2-4.6,16-7,24.9-7c5.7,0,11.5,1,16.9,3.1c5.8,2.2,12.9,5.9,18.5,12.2c5.6,6.4,9.9,15.4,9.9,28.6
	c0,5.7-0.8,12.2-2.7,19.6c-0.1,0.4,0.2,0.9,0.6,1C608.2,192.2,608.6,192,608.8,191.5z"/>
<path class="st5" d="M549.3,171.7L549.3,171.7c0.2-0.1,1.3-0.4,2.8-0.4c1.3,0,2.9,0.3,4.5,1.1c1.6,0.9,3.2,2.4,4.5,5.1
	c0.2,0.4,0.7,0.6,1.1,0.4c0.4-0.2,0.6-0.7,0.4-1.1c-1.4-2.9-3.3-4.8-5.2-5.8c-1.9-1.1-3.8-1.4-5.3-1.3c-1.9,0-3.3,0.5-3.3,0.5
	c-0.4,0.2-0.7,0.6-0.5,1.1C548.4,171.6,548.8,171.8,549.3,171.7z"/>
<path class="st5" d="M521,170.2L521,170.2c0.2-0.2,2.1-1.6,4.6-1.6c1.9,0,4.2,0.8,6.7,3.7c0.3,0.4,0.8,0.4,1.2,0.1
	c0.3-0.3,0.4-0.8,0.1-1.2c-2.7-3.3-5.6-4.3-8-4.3c-3.4,0-5.6,2-5.7,2c-0.3,0.3-0.4,0.8-0.1,1.2C520.1,170.4,520.6,170.5,521,170.2z"
	/>
<path class="st5" d="M550.7,188.6c0,1.9,0.9,3.5,2.1,3.5c1.2,0,2.1-1.6,2.1-3.5c0-1.9-0.9-3.5-2.1-3.5
	C551.6,185,550.7,186.6,550.7,188.6z"/>
<path class="st5" d="M526.7,186.6c0,1.9,0.9,3.5,2.1,3.5c1.2,0,2.1-1.6,2.1-3.5c0-1.9-0.9-3.5-2.1-3.5
	C527.6,183.1,526.7,184.7,526.7,186.6z"/>
<path class="st4" d="M532.9,178.6c0,0,1.3,9.6,0.7,11.5c-0.6,1.9-7.1,7.8-7.4,10.4c-0.3,2.6,5.5,5.3,5.5,5.3"/>
<path class="st5" d="M532.1,178.7c0,0,0.2,1.6,0.4,3.6c0.2,2,0.4,4.5,0.4,6.1c0,0.7-0.1,1.3-0.1,1.5c0,0.1-0.2,0.4-0.4,0.7
	c-0.7,1.1-2.4,2.9-3.9,4.7c-0.8,0.9-1.5,1.8-2,2.7c-0.6,0.9-1,1.6-1.1,2.5l0,0.3c0,0.9,0.5,1.7,1.1,2.4c0.9,1,2.1,1.8,3.1,2.4
	c1,0.6,1.8,1,1.8,1c0.4,0.2,0.9,0,1.1-0.4c0.2-0.4,0-0.9-0.4-1.1l-0.2-0.1c-0.5-0.2-1.8-0.9-2.9-1.8c-0.6-0.4-1.1-0.9-1.4-1.3
	c-0.3-0.4-0.5-0.9-0.5-1.1l0-0.1c0-0.4,0.4-1.2,1-2.1c0.9-1.4,2.4-3,3.6-4.4c0.6-0.7,1.2-1.4,1.7-2c0.5-0.6,0.8-1.1,1-1.7
	c0.2-0.5,0.2-1.1,0.2-1.9c0-3.5-0.9-9.9-0.9-9.9c-0.1-0.5-0.5-0.8-0.9-0.7C532.4,177.8,532.1,178.3,532.1,178.7z"/>
<path class="st5" d="M528.8,211.3c0,0,13,3.3,24,0c0,0-5.2,16.2-15.4,14.5c-6.8-1.1-5-11.7-5-11.7L528.8,211.3z"/>
<path class="st5" d="M564.7,147.6c0,0-5.4-3.7-12.9-2c-7.5,1.7-8.7,17.5-8.7,17.5s-4-3.5-4.7-7.9l-2.4,6.8l-6.2-5.9l-2.1,7l-2.5-5.1
	l-4.8,9.4c0,0-7.2-9.3-6.1-16.5c3.1-19.6,18.6-35.8,51.2-34c16.4,0.9,22.5,12.1,22.5,12.1s16-2.2,23.2,6.2c24.2,28.3,9,59.1-14,88.3
	l-7.9-27.8l-7.6-0.9c0,0,0.3-4.2,0-8.6c-0.2-4.4-2.8-10.7-2.8-10.7l-2.8,1.3l1.2-5.3l-6.5,3.3c0,0,2.7-21.9,0-25.6
	C568.1,145.4,564.7,147.6,564.7,147.6z"/>
<path class="st4" d="M584.5,198.6c0,0,7.6-14.2,15.6-10.8c8,3.5,2.4,20.5-4.5,26c-6.9,5.6-11.1,0-11.1,0"/>
<path class="st5" d="M585.3,199l0.1-0.1c0.3-0.6,1.9-3.3,4.2-5.9c1.1-1.3,2.4-2.5,3.8-3.4c1.4-0.9,2.8-1.4,4.2-1.4
	c0.7,0,1.5,0.1,2.3,0.5c1.2,0.5,2,1.4,2.6,2.5c0.6,1.1,0.8,2.6,0.8,4.2c0,3-0.9,6.7-2.5,10c-1.5,3.3-3.6,6.2-5.7,7.9
	c-2.2,1.8-4,2.3-5.4,2.3c-1.4,0-2.5-0.5-3.3-1.1c-0.4-0.3-0.7-0.5-0.9-0.7l-0.2-0.2l0-0.1l0,0l-0.1,0.1l0.1-0.1v0l-0.1,0.1l0.1-0.1
	c-0.3-0.4-0.8-0.4-1.2-0.2c-0.4,0.3-0.4,0.8-0.2,1.2c0,0,0.5,0.7,1.5,1.4c1,0.7,2.4,1.4,4.3,1.4c1.9,0,4.1-0.7,6.5-2.6
	c2.4-1.9,4.6-5,6.1-8.5c1.6-3.5,2.6-7.3,2.6-10.6c0-1.8-0.3-3.5-1-5c-0.7-1.5-1.8-2.6-3.4-3.3c-1-0.4-2-0.6-2.9-0.6
	c-2,0-3.8,0.8-5.4,1.9c-4.9,3.4-8.3,9.8-8.3,9.8c-0.2,0.4-0.1,0.9,0.3,1.1C584.6,199.6,585.1,199.4,585.3,199z"/>
<path class="st12" d="M543.1,150.5C543.1,150.5,543.1,150.5,543.1,150.5c-0.5,0-0.8-0.4-0.8-0.9c0.1-3.7,1.8-7.9,4.7-11.4
	c2.8-3.4,6.9-6,11.6-6c0.3,0,0.6,0,0.9,0c4.9,0.3,8.2,2.6,10.2,4.8c2,2.2,2.7,4.3,2.8,4.3c0.2,0.4-0.1,0.9-0.5,1.1
	c-0.1,0-0.2,0-0.3,0c-0.3,0-0.7-0.2-0.8-0.5l0,0l0-0.1l-0.1-0.2c-0.1-0.2-0.2-0.5-0.4-0.8c-0.4-0.7-1-1.7-1.9-2.7
	c-1.8-2-4.6-4-9-4.3c-0.3,0-0.5,0-0.8,0c0,0,0,0,0,0c-4.1,0-7.7,2.3-10.4,5.4c-2.6,3.1-4.2,7.2-4.3,10.4
	C544,150.2,543.6,150.5,543.1,150.5z"/>
<path class="st12" d="M589.1,170.6c-0.1,0-0.1,0-0.2,0c-0.4-0.1-0.7-0.6-0.6-1c0,0,0-0.1,0.1-0.3c0.1-0.2,0.1-0.6,0.2-1
	c0.2-0.8,0.4-2,0.7-3.5c0.5-2.9,1-6.8,1-10.6c0-4.7-0.8-9.3-2.9-12.2c-1.1-1.4-2.3-1.8-3.6-1.9c0,0,0,0,0,0c-1.2,0-2.5,0.4-3.5,0.9
	c-1,0.5-1.7,1-1.8,1.1l0,0c-0.1,0.1-0.3,0.2-0.5,0.2c-0.2,0-0.5-0.1-0.7-0.3c-0.3-0.4-0.2-0.9,0.2-1.2c0,0,0.8-0.6,1.9-1.2
	c1.2-0.6,2.7-1.2,4.4-1.2c0,0,0,0,0.1,0c1.7,0,3.5,0.7,4.9,2.5c2.5,3.4,3.3,8.3,3.3,13.2c0,8-2,15.8-2,15.9
	C589.8,170.3,589.5,170.6,589.1,170.6z"/>
<path class="st12" d="M604.1,167.3C604.1,167.3,604.1,167.3,604.1,167.3c-0.5,0-0.8-0.4-0.8-0.9c0,0,0-0.6,0-1.6
	c0-2.4-0.1-7.1-0.8-12c-0.7-4.9-2-9.9-4.2-13c-2.7-3.7-5.4-4.5-7.5-4.5c0,0,0,0,0,0c-2.1,0-3.6,0.9-3.7,0.9l0,0
	c-0.1,0.1-0.3,0.1-0.4,0.1c-0.3,0-0.5-0.1-0.7-0.4c-0.2-0.4-0.1-0.9,0.3-1.1c0.1,0,1.9-1.2,4.6-1.2c0,0,0,0,0.1,0
	c2.6,0,5.9,1.2,8.8,5.2c2.5,3.5,3.8,8.7,4.5,13.7c0.7,5,0.8,9.8,0.8,12.2c0,1.1,0,1.7,0,1.7C604.9,166.9,604.5,167.3,604.1,167.3z"
	/>
<path class="st12" d="M617.7,163.4c-0.4,0-0.8-0.4-0.8-0.8c-0.3-11.3-3.2-18.1-6.1-22.1c-2.8-4-5.6-5.2-5.6-5.2
	c-0.4-0.2-0.6-0.7-0.4-1.1c0.1-0.3,0.4-0.5,0.8-0.5c0.1,0,0.2,0,0.3,0.1c0.1,0,3.1,1.3,6.2,5.6c3.1,4.3,6.2,11.5,6.5,23.2
	C618.5,163,618.2,163.4,617.7,163.4C617.7,163.4,617.7,163.4,617.7,163.4z"/>
<path class="st12" d="M530.9,152.4c0,0-0.1,0-0.1,0c-0.5-0.1-0.8-0.5-0.7-0.9c0-0.1,0.7-5.1,3.9-10.6c3.2-5.5,8.9-11.5,18.8-13.4
	c2.8-0.5,5.3-0.8,7.6-0.8c0,0,0,0,0,0c6.9,0,11.6,2.1,14.6,4.2c3,2.1,4.3,4.2,4.3,4.3c0.2,0.4,0.1,0.9-0.3,1.1
	c-0.1,0.1-0.3,0.1-0.4,0.1c-0.3,0-0.6-0.1-0.7-0.4l0,0l0-0.1l-0.2-0.2c-0.1-0.2-0.4-0.5-0.7-0.9c-0.6-0.7-1.6-1.7-3-2.6
	c-2.7-1.9-7.1-3.9-13.7-3.9c-2.2,0-4.6,0.2-7.3,0.7c-8.7,1.7-14,6.7-17.1,11.7c-3.1,4.9-4.1,9.8-4.3,10.8l0,0.2
	C531.7,152.1,531.3,152.4,530.9,152.4z"/>
<path class="st12" d="M521.7,157c-0.4,0-0.7-0.3-0.8-0.6c-0.3-1.1-0.4-2.2-0.4-3.4c0-5.5,2.5-12.5,7.7-18.4
	c5.2-5.9,13.2-10.7,23.9-11.7c2.2-0.2,4.2-0.3,6.1-0.3c0,0,0,0,0,0c19.1,0,25.8,9.1,25.8,9.2c0.3,0.4,0.2,0.9-0.2,1.2
	c-0.1,0.1-0.3,0.2-0.5,0.2c-0.3,0-0.5-0.1-0.7-0.3l0,0l0-0.1l-0.2-0.2c-0.2-0.2-0.5-0.5-0.9-0.9c-0.8-0.8-2.2-1.9-4.1-2.9
	c-3.8-2.1-10-4.3-19.3-4.3c-1.9,0-3.8,0.1-6,0.3c-10.4,0.9-17.9,5.5-22.9,11.2c-5,5.6-7.3,12.3-7.3,17.3c0,1.1,0.1,2.1,0.3,3
	c0.1,0.4-0.2,0.9-0.6,1C521.8,157,521.7,157,521.7,157z"/>
<path class="st13" d="M390.8,269.9c0,0,28-21.5,40.1-23.7c12.2-2.2,54.1,7,54.1,7v49.7c0,0-26.2,2.9-38,11.5
	c-11.8,8.6-52.3,10-52.3,10L390.8,269.9z"/>
<path class="st5" d="M390.8,269.9l0.5,0.7c0,0,0.4-0.3,1.2-0.9c2.8-2.1,9.8-7.3,17.5-12.2c3.8-2.5,7.8-4.8,11.5-6.7
	c3.7-1.9,7.1-3.3,9.6-3.7c1.2-0.2,2.8-0.3,4.7-0.3c7.8,0,20.1,1.8,30.4,3.6c5.2,0.9,9.8,1.8,13.2,2.5c3.4,0.7,5.5,1.1,5.5,1.1
	l0.2-0.8h-0.8v49.7h0.8L485,302c0,0-6.6,0.7-14.7,2.5c-8.1,1.8-17.6,4.7-23.7,9.1c-2.8,2-7.4,3.7-12.9,5.1c-8.1,2-17.9,3.2-25.6,3.9
	c-3.9,0.3-7.2,0.6-9.6,0.7c-2.4,0.1-3.8,0.2-3.8,0.2l0,0.8l0.8-0.1l-3.9-54.5L390.8,269.9l0.5,0.7L390.8,269.9L390,270l3.9,54.5
	c0,0.4,0.4,0.8,0.9,0.8c0,0,10.2-0.3,21.8-1.8c5.8-0.7,12-1.7,17.5-3.1c5.5-1.4,10.3-3.1,13.4-5.3c5.7-4.2,15.1-7.1,23.1-8.8
	c4-0.9,7.6-1.5,10.3-1.9c1.3-0.2,2.4-0.3,3.1-0.4c0.7-0.1,1.1-0.1,1.1-0.1c0.4,0,0.7-0.4,0.7-0.8v-49.7c0-0.4-0.3-0.7-0.7-0.8
	c0,0-8.4-1.8-18.8-3.7c-10.4-1.8-22.7-3.7-30.7-3.7c-1.9,0-3.6,0.1-5,0.3c-3.2,0.6-7.3,2.4-11.7,4.7c-13.1,7-28.8,19.1-28.9,19.2
	c-0.2,0.2-0.3,0.4-0.3,0.7L390.8,269.9z"/>
<path class="st4" d="M417.1,254.5c0,0,0.6-6.3,1.6-9.8c1-3.5,7.7-3.1,9.3-1.9c1.5,1.2,3,3.4,3,3.4s-2.3,0.7-3,0.9
	C427.3,247.3,426.7,260,417.1,254.5z"/>
<path class="st5" d="M417.1,254.5l0.8,0.1c0,0,0-0.4,0.1-1c0.2-1.9,0.8-6.1,1.5-8.6c0.2-0.7,0.7-1.2,1.6-1.6c0.9-0.4,2-0.5,3.1-0.5
	c0.8,0,1.5,0.1,2.1,0.2c0.6,0.1,1.1,0.3,1.2,0.5c0.7,0.5,1.4,1.4,1.9,2c0.3,0.3,0.5,0.6,0.7,0.8l0.2,0.2l0.1,0.1l0.7-0.5l-0.2-0.8
	c0,0-2.3,0.7-3,0.9c-0.3,0.1-0.4,0.2-0.4,0.3c-0.1,0.2-0.2,0.3-0.2,0.4c-0.2,0.5-0.3,1.2-0.5,2c-0.3,1.3-0.9,2.8-1.7,4
	c-0.4,0.6-0.9,1.1-1.4,1.4c-0.6,0.3-1.2,0.5-2,0.5c-1,0-2.3-0.3-3.9-1.3L417.1,254.5l0.8,0.1L417.1,254.5l-0.4,0.7
	c1.8,1,3.3,1.5,4.7,1.5c1.6,0,2.9-0.7,3.9-1.6c1.4-1.4,2.2-3.3,2.7-4.9c0.2-0.8,0.4-1.5,0.5-2c0.1-0.2,0.1-0.4,0.2-0.5l0-0.1
	l-0.4-0.2l0.4,0.3l0.1-0.1l-0.4-0.2l0.4,0.3l-0.5-0.5l0.2,0.7c0.2-0.1,0.3-0.2,0.3-0.2l-0.5-0.5l0.2,0.7c0.3-0.1,1.1-0.3,1.7-0.5
	c0.7-0.2,1.2-0.4,1.2-0.4c0.3-0.1,0.5-0.3,0.5-0.5c0.1-0.2,0.1-0.5-0.1-0.7c0,0-1.5-2.2-3.2-3.6c-0.5-0.4-1.1-0.6-1.9-0.8
	c-0.7-0.2-1.6-0.3-2.5-0.3c-1.2,0-2.6,0.2-3.7,0.7c-1.1,0.5-2.2,1.4-2.5,2.7c-1,3.6-1.7,9.9-1.7,10c0,0.3,0.1,0.6,0.4,0.8
	L417.1,254.5z"/>
<path class="st14" d="M492.8,192.5l-27.9,80.8l-40-13.8l27.9-80.8L492.8,192.5z"/>
<defs>
	
		<filter id="Adobe_OpacityMaskFilter_00000089541338468895080430000006421489263318528647_" filterUnits="userSpaceOnUse" x="424.9" y="178.7" width="67.9" height="94.6">
		<feColorMatrix  type="matrix" values="1 0 0 0 0  0 1 0 0 0  0 0 1 0 0  0 0 0 1 0"/>
	</filter>
</defs>
<mask maskUnits="userSpaceOnUse" x="424.9" y="178.7" width="67.9" height="94.6" id="mask3_12578_347732_00000130645431062285982570000009948142855494647724_">
	<path style="fill:#FFFFFF;filter:url(#Adobe_OpacityMaskFilter_00000089541338468895080430000006421489263318528647_);" d="
		M492.8,192.5l-27.9,80.8l-40-13.8l27.9-80.8L492.8,192.5z"/>
</mask>
<g class="st16">
	<path class="st17" d="M464.9,273.3l-40-13.8l27.9-80.8l40,13.8L473,249.9l-0.5,1.6L464.9,273.3z M454.8,182.9l-25.7,74.5l33.7,11.6
		l25.7-74.5L454.8,182.9z"/>
	<path class="st17" d="M453.3,200.6c-0.2,0-0.5,0-0.7-0.1c-1.1-0.4-1.7-1.6-1.3-2.7l3.4-10c0.3-0.9,1.1-1.4,2-1.4
		c0.2,0,0.5,0,0.7,0.1c1.1,0.4,1.7,1.6,1.3,2.7l-3.4,10C455,200,454.1,200.6,453.3,200.6z"/>
	<path class="st17" d="M461,265.6c-0.2,0-0.5,0-0.7-0.1c-1.1-0.4-1.7-1.6-1.3-2.7l3.4-10c0.3-0.9,1.1-1.4,2-1.4c0.2,0,0.5,0,0.7,0.1
		c1.1,0.4,1.7,1.6,1.3,2.7l-3.4,10C462.7,265,461.9,265.6,461,265.6z"/>
	<path class="st17" d="M458.8,239.2c-1.4,0-2.9-0.2-4.3-0.7c-6.9-2.4-10.6-9.9-8.2-16.9c1.9-5.5,7-8.9,12.5-8.9
		c1.4,0,2.9,0.2,4.3,0.7c6.9,2.4,10.6,9.9,8.2,16.9C469.5,235.8,464.3,239.2,458.8,239.2z M460.8,228l-0.7,2l0.9,0.3
		c0.6,0.2,1.1,0.3,1.6,0.3c1.1,0,1.9-0.5,2.5-1.5l1,0.3l0.6-1.7l-1-0.3c0.2-1.6-0.7-2.8-2.5-3.5c-0.5-0.2-1-0.3-1.5-0.3
		c-1,0-2,0.4-3.3,1.2c-1.1,0.7-1.9,1-2.6,1c-0.3,0-0.6-0.1-0.9-0.2c-1-0.3-1.2-0.8-1-1.5c0.2-0.5,0.5-0.8,1-0.8c0.2,0,0.5,0,0.7,0.1
		l0.6,0.2l0.7-2l-0.4-0.1c-0.6-0.2-1.1-0.3-1.6-0.3c-1.1,0-1.9,0.5-2.5,1.4l-1-0.3l-0.6,1.7l1,0.3c-0.2,1.6,0.7,2.8,2.5,3.4
		c0.5,0.2,1,0.3,1.5,0.3c1,0,2-0.4,3.3-1.2c1.1-0.7,1.9-1,2.5-1c0.3,0,0.6,0.1,0.9,0.2c1,0.3,1.2,0.9,0.9,1.6
		c-0.2,0.5-0.5,0.8-1,0.8c-0.2,0-0.4,0-0.7-0.1L460.8,228z"/>
</g>
<path class="st5" d="M492.8,192.5l-0.8-0.3l-27.6,80L426,258.9l27.3-79.2l39.2,13.5L492.8,192.5l-0.8-0.3L492.8,192.5l0.3-0.8
	l-40-13.8c-0.4-0.1-0.9,0.1-1.1,0.5l-27.9,80.8c-0.2,0.4,0.1,0.9,0.5,1.1l40,13.8c0.2,0.1,0.4,0.1,0.6,0c0.2-0.1,0.3-0.3,0.4-0.5
	l27.9-80.8c0.1-0.2,0.1-0.4,0-0.6c-0.1-0.2-0.3-0.3-0.5-0.4L492.8,192.5z"/>
<path class="st14" d="M414.5,143.5l-21.9-82.6L433.5,50l21.9,82.6L414.5,143.5z"/>
<defs>
	
		<filter id="Adobe_OpacityMaskFilter_00000159457766654549307240000008779050099876960138_" filterUnits="userSpaceOnUse" x="392.6" y="50" width="62.8" height="93.5">
		<feColorMatrix  type="matrix" values="1 0 0 0 0  0 1 0 0 0  0 0 1 0 0  0 0 0 1 0"/>
	</filter>
</defs>
<mask maskUnits="userSpaceOnUse" x="392.6" y="50" width="62.8" height="93.5" id="mask4_12578_347732_00000037653205337311501390000007405444841520946574_">
	<path style="fill:#FFFFFF;filter:url(#Adobe_OpacityMaskFilter_00000159457766654549307240000008779050099876960138_);" d="
		M414.5,143.5l-21.9-82.6L433.5,50l21.9,82.6L414.5,143.5z"/>
</mask>
<g class="st19">
	<path class="st17" d="M414.5,143.5l-21.9-82.6L433.5,50l21.9,82.6L414.5,143.5z M431.1,54.1l-34.5,9.2l20.2,76.2l34.5-9.2
		L431.1,54.1z"/>
	<path class="st17" d="M446.7,128.8c-0.9,0-1.8-0.6-2.1-1.6l-2.7-10.2c-0.3-1.1,0.4-2.3,1.5-2.6c0.2,0,0.4-0.1,0.5-0.1
		c0.9,0,1.8,0.6,2.1,1.6l2.7,10.2c0.3,1.1-0.4,2.3-1.5,2.6C447.1,128.8,446.9,128.8,446.7,128.8z"/>
	<path class="st17" d="M404,79.2c-0.9,0-1.8-0.6-2.1-1.6l-2.7-10.2c-0.3-1.1,0.4-2.3,1.5-2.6c0.2,0,0.4-0.1,0.6-0.1
		c0.9,0,1.8,0.6,2.1,1.6l2.7,10.2c0.3,1.1-0.4,2.3-1.5,2.6C404.4,79.2,404.2,79.2,404,79.2z"/>
	<path class="st17" d="M424,110c-5.9,0-11.2-3.9-12.8-9.9c-1.9-7.1,2.3-14.3,9.4-16.2c1.1-0.3,2.3-0.4,3.4-0.4
		c5.9,0,11.2,3.9,12.8,9.9c1.9,7.1-2.3,14.3-9.4,16.2C426.3,109.9,425.1,110,424,110z M417.4,99.4c0.5,1.1,1.5,1.6,2.7,1.6
		c0.4,0,0.9-0.1,1.3-0.2c1.6-0.4,2.5-1.3,3.5-3.5c0.8-1.8,1.4-2.4,2.4-2.6c0.2-0.1,0.5-0.1,0.6-0.1c0.6,0,0.9,0.3,1,0.8
		c0.2,0.7-0.1,1.2-1.1,1.5l-0.6,0.2l0.5,2.1l0.4-0.1c1.9-0.5,2.9-1.6,2.8-3.2l1-0.3l-0.5-1.8l-1,0.3c-0.6-1.1-1.5-1.6-2.7-1.6
		c-0.4,0-0.9,0.1-1.4,0.2c-1.6,0.4-2.5,1.3-3.5,3.5c-0.8,1.8-1.4,2.4-2.4,2.6c-0.2,0.1-0.4,0.1-0.6,0.1c-0.6,0-0.9-0.3-1-0.9
		c-0.2-0.7,0.1-1.2,1-1.5l1.1-0.3l-0.5-2.1l-1,0.3c-1.9,0.5-2.9,1.6-2.8,3.3l-1,0.3l0.5,1.8L417.4,99.4z"/>
</g>
<path class="st5" d="M414.5,143.5l0.8-0.2l-21.7-81.8L432.9,51l21.5,81l-40.1,10.7L414.5,143.5l0.8-0.2L414.5,143.5l0.2,0.8
	l40.9-10.9c0.2-0.1,0.4-0.2,0.5-0.4c0.1-0.2,0.1-0.4,0.1-0.6l-21.9-82.6c-0.1-0.2-0.2-0.4-0.4-0.5c-0.2-0.1-0.4-0.1-0.6-0.1
	l-40.9,10.9c-0.2,0.1-0.4,0.2-0.5,0.4s-0.1,0.4-0.1,0.6l21.9,82.6c0.1,0.4,0.6,0.7,1,0.6L414.5,143.5z"/>
<path class="st20" d="M390.8,269.9c0,0,40.6-13.7,51.5-15.6c10.9-2,42.8-1.1,42.8-1.1v49.7c0,0-33.3,10.1-38.5,14.2
	c-5.1,4-51.9,7.4-51.9,7.4L390.8,269.9z"/>
<path class="st5" d="M390.8,269.9l0.3,0.8c0,0,2.5-0.9,6.5-2.2c6-2,15.1-5,23.9-7.7c8.7-2.7,17-5.1,21-5.8c5.6-1,17.3-1.3,27-1.3
	c4.3,0,8.2,0,11.1,0.1c2.8,0.1,4.6,0.1,4.6,0.1l0-0.8h-0.8v49.7h0.8l-0.2-0.8c0,0-8.3,2.5-17.3,5.6c-4.5,1.5-9.1,3.2-13,4.7
	c-1.9,0.8-3.7,1.5-5.1,2.2c-1.4,0.7-2.5,1.3-3.3,1.9c-0.4,0.4-1.7,0.9-3.4,1.3c-6.1,1.6-18.1,3.1-28.6,4.2
	c-5.2,0.5-10.1,0.9-13.6,1.2c-3.5,0.3-5.8,0.4-5.8,0.4l0.1,0.8l0.8-0.1l-3.9-54.5L390.8,269.9l0.3,0.8L390.8,269.9L390,270l3.9,54.5
	c0,0.5,0.4,0.8,0.9,0.8c0,0,11.7-0.8,24.1-2.2c6.2-0.7,12.5-1.5,17.7-2.3c2.6-0.4,4.8-0.9,6.6-1.4c1.8-0.5,3.2-1,4-1.6
	c0.5-0.4,1.6-1,3-1.7c4.8-2.3,13.7-5.4,21.3-7.9c3.8-1.3,7.3-2.4,9.8-3.2c2.5-0.8,4.1-1.3,4.1-1.3c0.3-0.1,0.6-0.4,0.6-0.8v-49.7
	c0-0.4-0.4-0.8-0.8-0.8c0,0-7.1-0.2-15.7-0.2c-9.7,0-21.4,0.2-27.3,1.3c-5.6,1-18.4,4.9-29.9,8.6c-11.5,3.7-21.7,7.1-21.7,7.1
	c-0.4,0.1-0.6,0.5-0.6,0.8L390.8,269.9z"/>
<path class="st5" d="M445.4,275.7c-1.1,5.8-1.2,12.6-2.1,19c-0.8,6.4-2.3,12.4-6,16.9c-0.3,0.4-0.2,0.9,0.1,1.2
	c0.4,0.3,0.9,0.2,1.2-0.1c4-4.9,5.5-11.2,6.3-17.7c0.8-6.5,1-13.2,2-18.9c0.1-0.4-0.2-0.9-0.7-1
	C445.9,274.9,445.4,275.2,445.4,275.7z"/>
<path class="st5" d="M448.9,258.2c-0.8,3.8-1.6,7.5-2.4,11.3c-0.1,0.4,0.2,0.9,0.6,1c0.4,0.1,0.9-0.2,1-0.6
	c0.7-3.8,1.5-7.5,2.4-11.3c0.1-0.4-0.2-0.9-0.6-1C449.4,257.5,449,257.8,448.9,258.2z"/>
<path class="st2" d="M513.8,278.2c-2.3-4.2-8.9-2.2-16.6,10c-7.7,12.1-10.9,26.3-9,31.4c1.9,5.2,26.8,11.4,26.8,11.4l5.1-13
	L513.8,278.2z"/>
<defs>
	
		<filter id="Adobe_OpacityMaskFilter_00000071558874054833181880000010234087906491059605_" filterUnits="userSpaceOnUse" x="487.6" y="276.2" width="32.5" height="54.8">
		<feColorMatrix  type="matrix" values="1 0 0 0 0  0 1 0 0 0  0 0 1 0 0  0 0 0 1 0"/>
	</filter>
</defs>
<mask maskUnits="userSpaceOnUse" x="487.6" y="276.2" width="32.5" height="54.8" id="mask5_12578_347732_00000145746344483502366870000008314203862891975576_">
	<path style="fill:#FFFFFF;filter:url(#Adobe_OpacityMaskFilter_00000071558874054833181880000010234087906491059605_);" d="
		M513.8,278.2c-2.3-4.2-8.9-2.2-16.6,10c-7.7,12.1-10.9,26.3-9,31.4c1.9,5.2,26.8,11.4,26.8,11.4l5.1-13L513.8,278.2z"/>
</mask>
<g class="st22">
	<path class="st23" d="M515,330.9c0,0-25-6.2-26.8-11.4c-0.3-1-0.5-2.2-0.5-3.8c0-6.6,3.3-17.8,9.5-27.7c5.3-8.4,10.2-12,13.4-12
		c1.4,0,2.6,0.7,3.3,2l6.3,39.7L515,330.9z"/>
</g>
<path class="st5" d="M513.8,278.2l0.7-0.4c-0.4-0.8-1-1.4-1.7-1.8c-0.7-0.4-1.5-0.6-2.3-0.6c-1.9,0-4.1,1-6.4,3
	c-2.4,2-4.9,5.1-7.6,9.3c-6.3,10-9.6,21.2-9.7,28.1c0,1.6,0.2,3,0.6,4.1c0.3,0.9,1,1.6,2,2.3c1.6,1.2,4,2.4,6.7,3.5
	c8,3.3,18.8,6,18.8,6c0.4,0.1,0.8-0.1,1-0.5l5.1-13.1l0-0.4l-6.3-39.7l-0.1-0.3L513.8,278.2l-0.8,0.1l6.3,39.5l-5.1,12.8l0.8,0.3
	l0.2-0.8c0,0-0.4-0.1-1.1-0.3c-2.4-0.6-8.4-2.3-14-4.3c-2.8-1-5.5-2.1-7.5-3.3c-1-0.6-1.9-1.1-2.5-1.7c-0.6-0.5-1-1-1.1-1.4
	c-0.3-0.8-0.5-2-0.5-3.5c0-6.4,3.2-17.5,9.4-27.2c2.6-4.1,5.1-7.1,7.3-8.9c2.2-1.9,4.1-2.6,5.4-2.6c0.6,0,1.1,0.1,1.5,0.4
	c0.4,0.3,0.8,0.6,1.1,1.2L513.8,278.2l-0.8,0.1L513.8,278.2z"/>
<path class="st4" d="M524.4,303.5L510,272.2c0,0-9.3-13.4-11.2-18.4c-1.8-5.1-22.4-9.1-27-9.1c-4.6,0-9.5,8.3-9.5,8.3l9.6,0
	c0,0,3.6,3.8,4,6c0.5,2.3-12.7,13.5-14.6,14.6c-1.9,1.1-6.9,2.7-12.1,6.6c-5.2,3.9-17.1,6.9-19.3,10.4c-2.2,3.5-0.6,4.1,0.9,4.9
	c1.6,0.8,4.2,1,4.2,1s-0.9,4,0,6c0.9,2.1,6.4,1.9,6.4,1.9s0.3,2.9,2.9,3.3c2.7,0.4,4.7,1.3,4.7,1.3s11.3,1.9,16.4,0.8
	c5.1-1.1,20.5-9.3,24.3-9c3.8,0.3,14.2,24.6,14.2,24.6S522.1,322.5,524.4,303.5z"/>
<path class="st5" d="M524.4,303.5l0.8-0.3l-14.3-31.3l-0.1-0.1c0,0-0.6-0.8-1.5-2.2c-1.4-2-3.4-5.1-5.3-8.2
	c-1.9-3.1-3.6-6.1-4.3-7.9c-0.3-0.9-0.9-1.6-1.8-2.2c-1.4-1.1-3.5-2.1-5.8-3c-3.5-1.3-7.8-2.4-11.5-3.2c-3.8-0.8-7-1.2-8.6-1.2
	c-1.4,0-2.7,0.6-3.9,1.4c-3.6,2.5-6.3,7.2-6.3,7.2c-0.2,0.3-0.2,0.6,0,0.8c0.1,0.3,0.4,0.4,0.7,0.4l9.6,0V253l-0.6,0.6l0.1,0.2
	c0.3,0.4,1.2,1.3,2,2.4c0.8,1.1,1.6,2.3,1.7,3.1l0.2,0h-0.2l0,0l0.2,0h-0.2l0,0.1c0,0.2-0.3,0.6-0.6,1.1c-1.3,1.9-4.4,4.8-7.3,7.4
	c-1.4,1.3-2.9,2.5-4,3.4c-0.6,0.5-1.1,0.9-1.5,1.2c-0.4,0.3-0.7,0.5-0.8,0.6c-0.8,0.5-2.6,1.2-4.7,2.2c-2.2,1-4.8,2.5-7.4,4.4
	c-2.5,1.8-6.7,3.6-10.6,5.3c-1.9,0.8-3.8,1.7-5.4,2.5c-1.5,0.9-2.8,1.7-3.5,2.8c-0.8,1.3-1.2,2.3-1.2,3.2c0,0.8,0.4,1.5,0.9,2
	c0.5,0.4,1.1,0.7,1.6,0.9c0.9,0.5,2,0.7,2.9,0.9c0.9,0.2,1.6,0.2,1.6,0.2l0.1-0.8l-0.8-0.2c0,0-0.4,1.8-0.4,3.7c0,1,0.1,2,0.5,2.8
	c0.3,0.7,0.9,1.1,1.5,1.4c0.9,0.5,2,0.7,3,0.8c1,0.1,1.9,0.1,2.4,0.1c0.2,0,0.4,0,0.4,0l0-0.8l-0.8,0.1c0,0.1,0.1,0.9,0.6,1.8
	c0.5,0.9,1.4,2,3.1,2.3c1.3,0.2,2.4,0.5,3.3,0.8c0.4,0.1,0.7,0.2,1,0.3l0.3,0.1l0.1,0l0.2,0c0,0,6.9,1.2,12.5,1.2
	c1.6,0,3-0.1,4.2-0.3c1.4-0.3,3.2-1,5.4-1.9c3.3-1.3,7.2-3.1,10.7-4.6c1.7-0.7,3.4-1.4,4.7-1.8c1.4-0.5,2.5-0.7,3.1-0.7l0.2,0h0
	c0,0,0.2,0,0.4,0.2c0.4,0.3,1,0.9,1.6,1.7c2.2,2.9,5.1,8.5,7.5,13.3c1.2,2.4,2.2,4.6,2.9,6.2c0.7,1.6,1.2,2.6,1.2,2.6
	c0.2,0.4,0.5,0.6,0.9,0.5c0.1,0,4.6-0.8,9.5-4c4.9-3.2,10.1-9,11.3-18.7c0-0.2,0-0.3-0.1-0.4L524.4,303.5l-0.8-0.1
	c-1.1,9.2-5.9,14.5-10.5,17.5c-2.3,1.5-4.5,2.5-6.2,3c-0.8,0.3-1.5,0.5-2,0.6c-0.2,0.1-0.4,0.1-0.5,0.1l-0.2,0l0.1,0.8l0.8-0.3
	c0,0-2.6-6.1-5.7-12.2c-1.6-3.1-3.2-6.1-4.8-8.5c-0.8-1.2-1.5-2.2-2.2-2.9c-0.4-0.4-0.7-0.7-1-0.9c-0.4-0.2-0.7-0.4-1.2-0.5l-0.3,0
	c-1.3,0-3,0.5-5.1,1.3c-3.1,1.2-7,2.9-10.6,4.4c-3.6,1.5-6.8,2.9-8.6,3.3c-1,0.2-2.4,0.3-3.9,0.3c-2.7,0-5.7-0.3-8.1-0.6
	c-1.2-0.1-2.2-0.3-2.9-0.4c-0.7-0.1-1.1-0.2-1.1-0.2l-0.1,0.8l0.3-0.8c0,0-2.1-0.8-4.9-1.3c-1-0.2-1.5-0.8-1.9-1.4
	c-0.2-0.3-0.3-0.6-0.3-0.9l-0.1-0.3l0-0.1l0,0l-0.3,0l0.3,0l0,0l-0.3,0l0.3,0c0-0.4-0.4-0.8-0.9-0.8c0,0-0.1,0-0.3,0
	c-0.6,0-1.9,0-3-0.3c-0.6-0.1-1.1-0.3-1.6-0.5c-0.4-0.2-0.7-0.4-0.7-0.6c-0.2-0.5-0.3-1.3-0.3-2.1c0-0.8,0.1-1.7,0.2-2.3
	c0-0.3,0.1-0.6,0.1-0.8c0-0.2,0.1-0.3,0.1-0.3c0.1-0.2,0-0.5-0.1-0.7s-0.4-0.3-0.6-0.3c0,0-0.1,0-0.4,0c-0.8-0.1-2.5-0.4-3.5-0.9
	c-0.5-0.3-1-0.5-1.2-0.7c-0.3-0.2-0.3-0.4-0.3-0.7c0-0.4,0.2-1.2,1-2.3c0.4-0.6,1.5-1.5,2.9-2.3c2.2-1.2,5.2-2.4,8.2-3.7
	c3-1.3,5.9-2.6,8-4.2c2.6-1.9,5.1-3.3,7.2-4.3c2.1-1,3.8-1.7,4.8-2.3c0.3-0.2,0.7-0.5,1.3-0.9c1.9-1.4,5.3-4.3,8.2-7.1
	c1.5-1.4,2.8-2.8,3.8-4c0.5-0.6,0.9-1.2,1.2-1.7c0.3-0.5,0.5-1,0.5-1.5l0-0.3c-0.1-0.7-0.5-1.4-0.9-2.2c-1.3-2.1-3.3-4.3-3.3-4.3
	c-0.2-0.2-0.4-0.3-0.6-0.3l-9.6,0v0.8l0.7,0.4c0,0,0.1-0.1,0.2-0.3c0.5-0.8,1.8-2.7,3.4-4.4c0.8-0.9,1.7-1.7,2.6-2.2
	c0.9-0.6,1.8-0.9,2.6-0.9c1.1,0,3.2,0.2,5.8,0.7c3.9,0.7,8.8,1.8,12.8,3.2c2,0.7,3.8,1.5,5.2,2.3c1.4,0.8,2.2,1.7,2.4,2.3
	c0.5,1.4,1.4,3.2,2.6,5.2c3.4,6,8.7,13.5,8.7,13.5l0.7-0.5l-0.8,0.3l14.3,31.3L524.4,303.5l-0.8-0.1L524.4,303.5z"/>
<path class="st5" d="M435.4,297.4c0,0,3.7-0.8,7.6-1.8c1.9-0.5,3.9-1,5.4-1.5c0.8-0.2,1.5-0.5,2-0.7c0.3-0.1,0.5-0.2,0.7-0.3
	c0.2-0.1,0.4-0.2,0.6-0.4v0l-0.1-0.1l0.1,0.1l0,0l-0.1-0.1l0.1,0.1c0,0,0.3-0.2,0.6-0.4c1.3-0.6,3.9-1.6,6.2-2.4
	c1.1-0.4,2.2-0.7,2.9-1s1.2-0.4,1.2-0.4c0.4-0.1,0.7-0.6,0.5-1c-0.1-0.4-0.6-0.7-1-0.5c0,0-2.6,0.8-5.3,1.8c-1.4,0.5-2.8,1-3.9,1.5
	c-0.6,0.2-1.1,0.5-1.5,0.7c-0.4,0.2-0.7,0.4-1,0.7l0.2,0.2l-0.2-0.2l0,0l0.2,0.2l-0.2-0.2l0,0c-0.1,0.1-0.5,0.2-1,0.4
	c-1.8,0.7-5.5,1.6-8.6,2.3c-1.6,0.4-3,0.7-4.1,0.9c-1.1,0.2-1.7,0.4-1.7,0.4c-0.4,0.1-0.7,0.5-0.6,1
	C434.5,297.2,434.9,297.5,435.4,297.4z"/>
<path class="st5" d="M441.8,305.3c0,0,2.1-0.4,4.5-0.9c2.4-0.5,5.2-1,6.6-1.2c0.9-0.1,2.2-0.5,3.7-1.1c4.6-1.7,11.3-4.8,11.3-4.8
	c0.4-0.2,0.6-0.7,0.4-1.1c-0.2-0.4-0.7-0.6-1.1-0.4c0,0-0.7,0.3-1.9,0.9c-1.7,0.8-4.4,1.9-6.9,3c-1.2,0.5-2.5,1-3.5,1.3
	c-1,0.4-1.9,0.6-2.3,0.6c-3,0.4-11.3,2.1-11.3,2.1c-0.4,0.1-0.7,0.5-0.6,1C440.9,305.1,441.3,305.4,441.8,305.3z"/>
<path class="st5" d="M449.4,309.9c0,0,2.9-0.2,6.2-0.6c1.6-0.2,3.3-0.4,4.8-0.7c1.5-0.3,2.7-0.5,3.5-0.9c1.2-0.5,3.6-1.4,5.6-2.1
	c2.1-0.7,3.9-1.3,3.9-1.3c0.4-0.1,0.7-0.6,0.5-1c-0.1-0.4-0.6-0.7-1-0.5c0,0-1.8,0.6-3.9,1.3c-2.1,0.7-4.5,1.6-5.8,2.2
	c-0.4,0.2-1.6,0.5-3,0.7c-2.1,0.4-4.9,0.7-7,0.9c-2.2,0.2-3.8,0.4-3.8,0.4c-0.5,0-0.8,0.4-0.8,0.9
	C448.5,309.6,448.9,309.9,449.4,309.9z"/>
<path class="st6" d="M622.6,289.7c-17.4,11.5-27.9,39.2-27.9,39.2l-27.2,50.5c0,0-22.8-56.2-29.3-57l-24.4-44.3c0,0,2.9,26-7.3,37
	c-10.2,11-18.4,4.4-18.4,4.4l7.6,21l1.9,10c0,0,32,96.1,42.5,102.1c10.5,6,34.3,8.6,54.5-6.2c20.2-14.8,54.8-70.8,58-89.1"/>
<path class="st5" d="M622.1,289c-8.9,5.9-15.9,15.8-20.7,24.2c-4.8,8.4-7.5,15.4-7.5,15.4l0.8,0.3l-0.7-0.4l-27.2,50.5l0.7,0.4
	l0.8-0.3c0,0-5.7-14.1-12.2-28.2c-3.3-7.1-6.7-14.2-9.8-19.6c-1.5-2.7-3-5-4.3-6.6c-0.6-0.8-1.2-1.5-1.8-2c-0.6-0.5-1.2-0.9-1.8-1
	l-0.1,0.8l0.7-0.4l-24.4-44.3c-0.2-0.3-0.6-0.5-1-0.4c-0.4,0.1-0.6,0.5-0.6,0.9c0,0,0,0.2,0.1,0.6c0.1,1.2,0.3,4,0.3,7.6
	c0,4.3-0.3,9.6-1.4,14.8c-1.1,5.1-3,10.1-6.1,13.4c-4.5,4.9-8.4,6.1-11.4,6.1c-1.8,0-3.3-0.5-4.3-0.9c-0.5-0.2-0.9-0.5-1.2-0.6
	l-0.3-0.2l-0.1,0l0,0c-0.3-0.2-0.7-0.2-1,0c-0.3,0.2-0.4,0.6-0.3,1l7.6,20.9l1.9,9.9l0,0.1c0,0,8,24,17.3,48.8
	c4.7,12.4,9.7,25,14.1,34.9c2.2,4.9,4.4,9.2,6.3,12.4c1,1.6,1.8,3,2.7,4.1c0.8,1.1,1.6,1.9,2.4,2.3c5,2.8,12.6,4.9,21.5,4.9
	c10.5,0,22.8-2.9,33.9-11.1c5.2-3.8,11.1-10.1,17.3-17.7c9.2-11.5,18.9-25.9,26.5-39.3c7.6-13.4,13.3-25.5,14.6-32.6
	c0.1-0.4-0.2-0.9-0.7-1c-0.5-0.1-0.9,0.2-1,0.7c-0.8,4.4-3.5,11.3-7.5,19.3c-6,12-14.8,26.6-24,39.5c-9.2,12.9-18.8,24.2-26.2,29.7
	c-10.8,7.9-22.7,10.8-32.9,10.8c-8.6,0-16.1-2-20.7-4.6c-0.5-0.3-1.2-0.9-2-1.9c-2.9-3.7-7-11.9-11.3-22
	c-6.5-15.1-13.7-34.6-19.3-50.2c-2.8-7.8-5.2-14.7-6.9-19.6c-0.8-2.5-1.5-4.4-2-5.8c-0.5-1.4-0.7-2.1-0.7-2.1l-0.8,0.3l0.8-0.2
	l-1.9-10l0-0.1l-7.6-21l-0.8,0.3l-0.5,0.6c0.1,0.1,2.7,2.2,6.9,2.2c3.5,0,7.9-1.5,12.6-6.6c3.4-3.7,5.3-8.9,6.5-14.2
	c1.1-5.3,1.4-10.8,1.4-15.1c0-4.9-0.4-8.3-0.4-8.4l-0.8,0.1l-0.7,0.4l24.4,44.3c0.1,0.2,0.4,0.4,0.6,0.4c0.1,0,0.5,0.2,0.9,0.6
	c0.9,0.7,2,2.2,3.3,4.2c4.5,6.9,10.6,19.9,15.6,31.1c2.5,5.6,4.7,10.8,6.3,14.5c0.8,1.9,1.4,3.4,1.9,4.5c0.4,1.1,0.7,1.6,0.7,1.7
	c0.1,0.3,0.4,0.5,0.7,0.5c0.3,0,0.6-0.1,0.8-0.4l27.2-50.5l0-0.1c0,0,0.2-0.4,0.5-1.2c1.1-2.7,4.1-9.6,8.8-17.1
	c4.6-7.5,10.9-15.5,18.3-20.4c0.4-0.2,0.5-0.8,0.2-1.1C623,288.9,622.5,288.8,622.1,289z"/>
<path class="st5" d="M529.1,329.6c0.9-1.3,1.7-2.7,2.5-4.1c0.2-0.4,0.1-0.9-0.3-1.1c-0.4-0.2-0.9-0.1-1.1,0.3
	c-0.7,1.4-1.5,2.7-2.4,4c-0.3,0.4-0.2,0.9,0.2,1.1C528.3,330.1,528.8,330,529.1,329.6z"/>
<path class="st5" d="M507.9,343.1c7.2-0.8,13.9-4.5,18.5-10c0.3-0.3,0.2-0.9-0.1-1.2c-0.3-0.3-0.9-0.2-1.2,0.1
	c-4.4,5.2-10.7,8.7-17.4,9.4c-0.5,0-0.8,0.5-0.7,0.9C507.1,342.8,507.5,343.1,507.9,343.1z"/>
<path class="st5" d="M495.4,341.3c2.8,1.2,5.8,1.8,8.8,2c0.5,0,0.8-0.3,0.9-0.8c0-0.5-0.3-0.8-0.8-0.9c-2.8-0.1-5.6-0.7-8.2-1.8
	c-0.4-0.2-0.9,0-1.1,0.4C494.8,340.6,495,341.1,495.4,341.3z"/>
<path class="st5" d="M573.8,401.8c0,0.5,0,0.9,0,1.4c0,1.8-0.2,3.5-0.6,5.3c-0.1,0.4,0.2,0.9,0.6,1c0.4,0.1,0.9-0.2,1-0.6
	c0.4-1.9,0.6-3.8,0.6-5.6c0-0.5,0-1,0-1.5c0-0.5-0.4-0.8-0.9-0.8C574.1,400.9,573.8,401.3,573.8,401.8z"/>
<path class="st5" d="M566.8,379.9c3.1,5.5,5.5,11.6,6.6,17.8c0.1,0.5,0.5,0.8,1,0.7c0.5-0.1,0.8-0.5,0.7-1
	c-1.1-6.4-3.5-12.8-6.8-18.4c-0.2-0.4-0.7-0.5-1.1-0.3C566.7,379,566.5,379.5,566.8,379.9z"/>
<path class="st5" d="M583.2,388c0,0-5-6.3-10.8-9.3c-0.4-0.2-0.9,0-1.1,0.4c-0.2,0.4,0,0.9,0.4,1.1c2.7,1.4,5.3,3.6,7.2,5.5
	c1,0.9,1.7,1.8,2.3,2.4c0.3,0.3,0.5,0.6,0.6,0.7c0.1,0.2,0.2,0.3,0.2,0.3c0.3,0.4,0.8,0.4,1.2,0.1
	C583.4,388.9,583.4,388.3,583.2,388z"/>
<path class="st5" d="M625.5,314.3c0,0-0.8-0.1-2.2-0.1c-4.8,0-16.3,1.3-25.9,12.3c-0.3,0.3-0.3,0.9,0.1,1.2c0.3,0.3,0.9,0.3,1.2-0.1
	c9.2-10.6,20.2-11.8,24.7-11.8c0.7,0,1.2,0,1.5,0c0.2,0,0.3,0,0.4,0l0.1,0c0.5,0.1,0.9-0.3,0.9-0.7
	C626.3,314.8,626,314.4,625.5,314.3z"/>
<path class="st5" d="M641.5,357.1c-0.7,0.1-1.3,0.1-2,0.1c-2.1,0-4.2-0.5-6.1-1.4c-0.4-0.2-0.9,0-1.1,0.4c-0.2,0.4,0,0.9,0.4,1.1
	c2.1,1.1,4.5,1.6,6.8,1.6c0.7,0,1.5-0.1,2.2-0.2c0.5-0.1,0.8-0.5,0.7-0.9C642.4,357.3,641.9,357,641.5,357.1z"/>
<path class="st5" d="M659.1,337.2c-2.4,11.4-8.6,17-14,18.9c-0.4,0.2-0.7,0.6-0.5,1.1c0.2,0.4,0.6,0.7,1.1,0.5
	c5.9-2.1,12.6-8.3,15-20.1c0.1-0.4-0.2-0.9-0.6-1C659.7,336.5,659.2,336.8,659.1,337.2z"/>
<path class="st5" d="M587.7,270.7c0,0-0.1,0-0.3,0.1c-1.6,0.3-8.6,1.7-16.7,1.7c-7.4,0-15.8-1.2-21.9-5.2c-0.4-0.3-0.9-0.2-1.1,0.2
	c-0.3,0.4-0.2,0.9,0.2,1.1c6.5,4.4,15.2,5.5,22.8,5.5c9.5,0,17.3-1.8,17.4-1.8c0.4-0.1,0.7-0.5,0.6-1
	C588.6,270.8,588.2,270.6,587.7,270.7z"/>
<path class="st5" d="M496.2,427c0,0,3.5,9.9,11,20.5c7.5,10.7,19.1,22.3,35.4,25.6c0.4,0.1,0.9-0.2,1-0.6c0.1-0.4-0.2-0.9-0.6-1
	c-15.7-3.2-27-14.5-34.4-25c-3.7-5.2-6.4-10.3-8.2-14c-0.9-1.9-1.5-3.4-2-4.5c-0.2-0.5-0.4-0.9-0.5-1.2c-0.1-0.3-0.2-0.4-0.2-0.4
	c-0.2-0.4-0.6-0.7-1.1-0.5C496.2,426.1,496,426.6,496.2,427z"/>
<path class="st5" d="M588.8,480.2c-1.6,1.2-3.3,2.3-5.1,3.4c-0.4,0.2-0.5,0.8-0.3,1.1c0.2,0.4,0.7,0.5,1.1,0.3
	c1.8-1.1,3.5-2.2,5.2-3.5c0.4-0.3,0.4-0.8,0.2-1.2C589.7,480,589.2,479.9,588.8,480.2z"/>
<path class="st4" d="M165.4,454.7c-0.5,21.5,10.1,19.8,10.1,19.8c0.7-1.8,2.2-4.2,4-7.1c5.6-8.6,14.1-20.6,10.9-27.8
	c-1.5-3.2-4.2-7.8-7.1-12.3c-5.7-8.8-12.3-17.6-12.3-17.6l28.5-4.7c0,0,20.3,8.4,36.3,9.4c0.4,0,0.8,0,1.2,0
	c14.6,0.3,12.3-11.2,12.3-14.9c0-1.6-4-4.5-8.6-7.3c-6.6-4-14.6-8-14.6-8l4.3-9c3,0.5,5.5,0.6,7.6,0.4c11.1-1.2,9.6-12.1,7.8-16.9
	c-0.5-1.4-3.1-3.4-6.7-5.8c-11.4-7.5-33.2-18-33.2-18h-32L142.4,421C142.4,421,165.9,433.2,165.4,454.7z"/>
<path class="st24" d="M179.3,466.3c-0.3-1.6-0.4-3.4-0.4-5.1c0.1-4.3,2.2-11,3.9-15.8h7.2c-0.3,1.8-1,3.7-1.8,5.6
	c-1.9,4.3-4.8,8.8-7.5,12.9C180.3,464.8,179.8,465.5,179.3,466.3z"/>
<path class="st24" d="M174.9,473.7c-0.9,0-3-0.3-5-2.5c-0.2-0.2-0.4-0.4-0.5-0.7c2.5-9.3,4.7-18.3,5.3-25.2h8.1
	c-1.7,4.8-3.9,11.4-3.9,15.8c0,1.7,0.1,3.4,0.4,5.1C177.4,469.2,175.8,471.7,174.9,473.7z"/>
<path class="st5" d="M173.9,335.9h32V335l-0.4,0.7c0,0,0.6,0.3,1.6,0.8c3.6,1.8,12.7,6.3,21.1,10.9c4.2,2.3,8.2,4.7,11.3,6.8
	c1.5,1,2.8,2,3.8,2.9c0.9,0.8,1.5,1.6,1.7,1.9c0.6,1.6,1.2,4.1,1.2,6.5c0,2.4-0.6,4.7-2.1,6.4c-1.5,1.7-4,2.9-8.3,3
	c-1.5,0-3.3-0.2-5.3-0.5c-0.4-0.1-0.7,0.1-0.9,0.5l-4.3,9c-0.2,0.4,0,0.9,0.4,1.1c0,0,0.4,0.2,1,0.5c2.2,1.1,7.7,4,12.7,7
	c2.5,1.5,4.8,3,6.5,4.4c0.8,0.7,1.5,1.3,2,1.8c0.4,0.5,0.6,0.9,0.6,1c0,1,0.1,2.3,0.1,3.8c0,2.3-0.3,4.9-1.8,6.8
	c-0.7,1-1.8,1.8-3.2,2.4c-1.5,0.6-3.4,1-6,1c-0.5,0-1.1,0-1.7-0.1c-7.9-0.5-16.9-2.8-23.9-5c-3.5-1.1-6.5-2.2-8.7-3
	c-1.1-0.4-1.9-0.7-2.5-1c-0.6-0.2-0.9-0.4-0.9-0.4c-0.1-0.1-0.3-0.1-0.5-0.1l-28.5,4.7c-0.3,0-0.5,0.2-0.6,0.5
	c-0.1,0.3-0.1,0.6,0.1,0.8c0,0,0.9,1.3,2.4,3.3c2.2,3.1,5.7,7.9,8.9,12.9c3.3,5,6.4,10.1,7.9,13.5c0.4,1,0.6,2,0.6,3.2
	c0,2.3-0.8,5-2,7.9c-1.9,4.3-4.8,8.8-7.5,12.9c-2.7,4.1-5.1,7.7-6.1,10.3l0.8,0.3l-0.1-0.8l0,0.3l0-0.3h0l0,0.3l0-0.3
	c0,0-0.2,0-0.4,0c-0.9,0-3-0.2-5-2.5c-1.9-2.2-3.8-6.6-3.8-15c0-0.5,0-1,0-1.5c0-0.2,0-0.5,0-0.7c0-10.9-5.9-19.3-11.7-25
	c-5.8-5.7-11.6-8.7-11.7-8.7c-0.4-0.2-0.9-0.1-1.1,0.4c-0.2,0.4-0.1,0.9,0.4,1.1c0,0,0.1,0,0.2,0.1c1.2,0.7,6.8,3.9,12.1,9.4
	c5.3,5.5,10.2,13.2,10.2,22.8c0,0.2,0,0.5,0,0.7c0,0.5,0,1.1,0,1.6c0,8.7,1.9,13.5,4.2,16.1c2.3,2.7,5,3,6.2,3c0.4,0,0.7,0,0.7,0
	c0.3,0,0.5-0.2,0.6-0.5c0.5-1.5,1.8-3.6,3.4-6c2.4-3.7,5.4-8.1,7.9-12.6c2.5-4.5,4.4-9,4.4-13c0-1.4-0.2-2.7-0.8-3.9
	c-2.2-4.9-7-12.3-11.4-18.6c-4.3-6.3-8.1-11.4-8.1-11.4l-0.7,0.5l0.1,0.8l28.5-4.7l-0.1-0.8l-0.3,0.8c0,0,20.3,8.4,36.5,9.4
	c0.6,0,1.2,0.1,1.8,0.1c2.7,0,4.9-0.4,6.6-1.1c2.6-1.1,4.2-2.9,5-4.9c0.9-2,1-4.1,1-5.9c0-1.6-0.1-3-0.1-3.8c0-0.4-0.2-0.8-0.4-1.2
	c-0.4-0.7-1.1-1.4-1.9-2.1c-2.9-2.5-8.2-5.7-12.8-8.3c-4.6-2.6-8.5-4.5-8.5-4.5l-0.4,0.7l0.7,0.4l4.3-9l-0.7-0.4l-0.1,0.8
	c2.1,0.4,3.9,0.5,5.6,0.5c4.6,0,7.7-1.4,9.5-3.5c1.9-2.1,2.5-4.9,2.5-7.5c0-2.7-0.6-5.3-1.3-7.1c-0.4-1-1.3-1.9-2.6-3
	c-2.2-1.9-5.7-4.1-9.6-6.4c-11.8-7-28.1-14.8-28.1-14.8l-0.4-0.1h-32c-0.5,0-0.8,0.4-0.8,0.8C173.1,335.5,173.4,335.9,173.9,335.9z"
	/>
<path class="st5" d="M181.9,435.1c-0.1,0-2.3-1.3-5.2-1.3c-1.4,0-2.9,0.3-4.3,1.1c-1.5,0.8-2.8,2.2-3.9,4.4
	c-0.2,0.4-0.1,0.9,0.3,1.1c0.4,0.2,0.9,0.1,1.1-0.3c1-1.9,2.1-3,3.3-3.7c1.2-0.7,2.4-0.9,3.5-0.9c1.2,0,2.3,0.3,3.2,0.6
	c0.4,0.1,0.7,0.3,1,0.4l0.3,0.1l0.1,0l0,0c0.4,0.2,0.9,0.1,1.1-0.3C182.4,435.8,182.3,435.3,181.9,435.1z"/>
<path class="st25" d="M279.5,444.6H121c-8.5,0-15.3-6.9-15.3-15.3V132c0-8.5,6.9-15.3,15.3-15.3h158.5c8.5,0,15.3,6.9,15.3,15.3
	v297.2C294.8,437.7,287.9,444.6,279.5,444.6z"/>
<path class="st5" d="M279.6,444.6v-0.8H121.1c-4,0-7.6-1.6-10.2-4.2c-2.6-2.6-4.2-6.2-4.2-10.2V132c0-4,1.6-7.6,4.2-10.2
	c2.6-2.6,6.2-4.2,10.2-4.2h158.5c4,0,7.6,1.6,10.2,4.2c2.6,2.6,4.2,6.2,4.2,10.2v297.2c0,4-1.6,7.6-4.2,10.2
	c-2.6,2.6-6.2,4.2-10.2,4.2v1.7c8.9,0,16.1-7.2,16.1-16.1V132c0-8.9-7.2-16.1-16.1-16.1H121.1c-8.9,0-16.1,7.2-16.1,16.1v297.2
	c0,8.9,7.2,16.1,16.1,16.1h158.5V444.6z"/>
<g>
	<defs>
		<path id="SVGID_1_" d="M289.4,129.8V432c0,3.8-3.1,6.8-6.8,6.8H118.8c-3.8,0-6.8-3.1-6.8-6.8V129.8c0-3.8,3.1-6.8,6.8-6.8h36.4
			c2.4,0,4.5,1.5,5.4,3.7l1.5,4.2c0.8,2.2,3,3.7,5.4,3.7h66.4c2.4,0,4.5-1.5,5.4-3.7l1.5-4.2c0.8-2.2,3-3.7,5.4-3.7h36.4
			C286.4,123,289.4,126.1,289.4,129.8z"/>
	</defs>
	<clipPath id="SVGID_00000145033881948982066730000013533387711196368785_">
		<use xlink:href="#SVGID_1_"  style="overflow:visible;"/>
	</clipPath>
	<g style="clip-path:url(#SVGID_00000145033881948982066730000013533387711196368785_);">
		<defs>
			<rect id="SVGID_00000168100424075945402780000003174398890571377827_" x="106.5" y="92.7" width="186.8" height="415.1"/>
		</defs>
		<clipPath id="SVGID_00000022548595754297465770000008575672287055991733_">
			<use xlink:href="#SVGID_00000168100424075945402780000003174398890571377827_"  style="overflow:visible;"/>
		</clipPath>
		
			<g transform="matrix(1 0 0 1 -7.629395e-06 0)" style="clip-path:url(#SVGID_00000022548595754297465770000008575672287055991733_);">
			
				<image style="overflow:visible;" width="540" height="1200" xlink:href="A3B0E35D.jpg"  transform="matrix(0.3459 0 0 0.3459 106.47 92.7443)">
			</image>
		</g>
	</g>
</g>
<path class="st27" d="M163.5,345.3h-5.8c-0.4,0-0.7,0.1-0.9,0.3c-0.2,0.2-0.3,0.4-0.3,0.8s0.1,0.6,0.3,0.8c0.2,0.2,0.5,0.3,0.9,0.3
	h3.7c-0.8,1-1.4,2.2-2,3.5s-1,2.7-1.2,4.2c-0.1,0.3-0.1,0.6-0.1,0.7c0,0.5,0.1,0.8,0.3,1c0.2,0.2,0.5,0.3,0.8,0.3
	c0.4,0,0.7-0.1,0.9-0.3c0.2-0.2,0.3-0.6,0.4-1c0.3-1.8,0.7-3.2,1.1-4.4c0.4-1.2,1-2.3,1.8-3.2l0.6-0.7c0.2-0.3,0.4-0.5,0.5-0.7
	c0.1-0.2,0.2-0.3,0.2-0.5c0-0.3-0.1-0.5-0.3-0.7C164.1,345.4,163.8,345.3,163.5,345.3z"/>
<path class="st27" d="M164.5,367.3h-5.8c-0.4,0-0.7,0.1-0.9,0.3c-0.2,0.2-0.3,0.4-0.3,0.8s0.1,0.6,0.3,0.8c0.2,0.2,0.5,0.3,0.9,0.3
	h3.7c-0.8,1-1.4,2.2-2,3.5s-1,2.7-1.2,4.2c-0.1,0.3-0.1,0.6-0.1,0.7c0,0.5,0.1,0.8,0.3,1c0.2,0.2,0.5,0.3,0.8,0.3
	c0.4,0,0.7-0.1,0.9-0.3c0.2-0.2,0.3-0.6,0.4-1c0.3-1.8,0.7-3.2,1.1-4.4c0.4-1.2,1-2.3,1.8-3.2l0.6-0.7c0.2-0.3,0.4-0.5,0.5-0.7
	c0.1-0.2,0.2-0.3,0.2-0.5c0-0.3-0.1-0.5-0.3-0.7C165.1,367.4,164.8,367.3,164.5,367.3z"/>
<path class="st4" d="M184.5,126.6c0,1.6-1.3,2.8-2.8,2.8c-1.6,0-2.8-1.3-2.8-2.8c0-1.6,1.3-2.8,2.8-2.8
	C183.3,123.8,184.5,125,184.5,126.6z"/>
<path class="st5" d="M184.5,126.6h-0.8c0,1.1-0.9,2-2,2c-1.1,0-2-0.9-2-2c0-1.1,0.9-2,2-2c1.1,0,2,0.9,2,2h1.7c0-2-1.6-3.7-3.7-3.7
	c-2,0-3.7,1.6-3.7,3.7c0,2,1.6,3.7,3.7,3.7c2,0,3.7-1.6,3.7-3.7H184.5z"/>
<path class="st4" d="M221.5,126.6c0,1-0.8,1.8-1.8,1.8s-1.8-0.8-1.8-1.8c0-1,0.8-1.8,1.8-1.8S221.5,125.6,221.5,126.6z"/>
<path class="st5" d="M221.5,126.6h-0.8c0,0.5-0.4,0.9-0.9,0.9c-0.5,0-0.9-0.4-0.9-0.9c0-0.5,0.4-0.9,0.9-0.9c0.5,0,0.9,0.4,0.9,0.9
	h1.7c0-1.4-1.2-2.6-2.6-2.6c-1.4,0-2.6,1.2-2.6,2.6c0,1.4,1.2,2.6,2.6,2.6c1.4,0,2.6-1.2,2.6-2.6H221.5z"/>
<path class="st4" d="M211.5,127.6h-21.2c-0.6,0-1-0.4-1-1c0-0.6,0.4-1,1-1h21.2c0.6,0,1,0.4,1,1C212.5,127.1,212,127.6,211.5,127.6z
	"/>
<path class="st5" d="M211.5,127.6v-0.8h-21.2l-0.2-0.2l0.2-0.2h21.2l0.2,0.2l-0.2,0.2v1.7c1,0,1.8-0.8,1.8-1.8c0-1-0.8-1.8-1.8-1.8
	h-21.2c-1,0-1.8,0.8-1.8,1.8c0,1,0.8,1.8,1.8,1.8h21.2V127.6z"/>
<path class="st5" d="M91,309.2l0.1,0c0.5,0.2,3.2,1.1,6.1,3.1c2.9,1.9,6,4.9,7.7,9c0.2,0.4,0.7,0.6,1.1,0.5c0.4-0.2,0.6-0.7,0.5-1.1
	c-2-4.9-5.7-8.1-8.9-10.2c-3.2-2-6-2.9-6-2.9c-0.4-0.1-0.9,0.1-1,0.5C90.3,308.6,90.6,309.1,91,309.2z"/>
<path class="st4" d="M42.9,602.2c1.2-20.6,2-41.7,3-58.6c2.1-35.1,3.7-58.7,6.9-82.7c3.2-24,2.7-60.3,4.3-72.9
	c1.6-12.7,6.4-15.3,10.1-30.4c3.8-15,7.1-45,13.3-49.2c6.2-4.2,25.1-12.1,25.1-12.1v84.8c11.2,17.2,24.5,21.5,24.5,21.5
	c8.5-24.7,7.5-34.5,16-43.6c8.5-9.1,14.7-20.9,28.1-16c6.4,2.4,9.8,4.8,6.6,26.4c-3.2,21.6-9.6,28.4-9.6,28.4
	c-1.1,7.4,0.5,28.9,3.2,39.9c2.7,11-7.5,40.2-12.3,58.9c-4.8,18.7-30.4,56.5-30.4,56.5s-1.1,20.8,1.1,42.7c0.2,2,0.4,4.2,0.7,6.4
	l1.7,58.1l-92.3-1.7V602.2z"/>
<path class="st23" d="M144.5,361c0.5-0.6,1.1-1.3,1.6-1.9c4.6-4.9,8.5-10.6,13.3-14c0,0,0,0,0,0c-4.7,3.4-8.6,9.1-13.3,14
	C145.6,359.7,145,360.3,144.5,361z"/>
<path class="st2" d="M161.4,343.7C161.4,343.7,161.4,343.7,161.4,343.7c2-1.1,4.1-1.8,6.5-1.8C165.5,342,163.4,342.6,161.4,343.7z"
	/>
<path class="st23" d="M159.4,345C159.4,345,159.4,345,159.4,345c0.7-0.5,1.3-0.9,2-1.3c0,0,0,0,0,0
	C160.7,344.1,160.1,344.5,159.4,345z"/>
<path class="st2" d="M176.7,344.1c-0.4-0.2-0.8-0.4-1.2-0.5C175.9,343.7,176.3,343.9,176.7,344.1z"/>
<path class="st24" d="M169.5,366.5c-1.3,0-2.6-0.6-3.6-2c-2.4-3.3-6.8-4.7-11.7-4.7c-3.4,0-7,0.7-10.2,1.9c0.2-0.2,0.3-0.4,0.5-0.7
	c0.5-0.6,1.1-1.3,1.7-1.9c4.6-4.9,8.5-10.6,13.3-14c0.6-0.5,1.3-0.9,2-1.3c2-1.1,4.1-1.8,6.5-1.8c0.1,0,0.2,0,0.3,0
	c1.8,0,3.8,0.4,6,1.2c0.4,0.2,0.9,0.3,1.3,0.5c0.4,0.2,0.8,0.3,1.2,0.5c0.8,0.4,1.6,0.9,2.2,1.5c-0.4,0.8-0.5,2,0,3.8
	C181,356.8,174.7,366.5,169.5,366.5z"/>
<path class="st23" d="M172,422.4c-1-9.7-1.4-19.9-0.8-24.5c0,0,0.1-0.2,0.4-0.5c-0.3,0.3-0.4,0.5-0.4,0.5
	C170.6,402.5,170.9,412.7,172,422.4z"/>
<path class="st24" d="M116.8,597.2l4.2-15.8c2.8-6.8,5.2-32.2,10.7-37.8c5.5-5.6,17.2-37,24.3-64.8c7.1-27.7,10.7-29.5,9.1-50.8
	c-1.7-21.3,5.2-37.6,5.2-37.6c1.5,0.3,2.9,1.3,4,2.4c-1.2,2.4-2.2,3.9-2.7,4.6c-0.3,0.3-0.4,0.5-0.4,0.5c-0.7,4.6-0.3,14.9,0.8,24.5
	c0.6,5.7,1.5,11.3,2.4,15.3c2.7,11-7.5,40.2-12.3,58.9c-4.8,18.7-30.4,56.5-30.4,56.5s-0.5,10.4-0.1,24.2
	C122.8,591.4,116.8,597.2,116.8,597.2z"/>
<path class="st2" d="M111,388.2L111,388.2C111,388.2,111,388.2,111,388.2z"/>
<path class="st23" d="M105.6,381.1C105.6,381.1,105.6,381.1,105.6,381.1l0-59.3h0V381.1z"/>
<path class="st24" d="M88.6,304C88.6,304,88.6,304,88.6,304c6.3-3.1,13.7-6.3,16.2-7.3C102.4,297.7,95,300.9,88.6,304z"/>
<path class="st23" d="M105.6,319C105.6,319,105.6,319,105.6,319l0-22.7c0,0-0.3,0.1-0.8,0.3c0.5-0.2,0.8-0.4,0.8-0.4V319z"/>
<path class="st23" d="M105.6,321.8V319c0,0,0,0,0,0L105.6,321.8L105.6,321.8z"/>
<path class="st24" d="M122.3,413c-3.1,0-4.9-3.2-5.6-6.3c-1.1-4.6-17.5-8.9-17.5-8.9c3.4-2,11.8-3.3,11.8-3.3s-1.4-1.4-8.2-6.6
	c-6.8-5.2-23.1-6.9-23.1-6.9c3.2-9.2,13.1-11.7,13.1-11.7s-6.1-45.8,0-48.5c7.9-3.5,9.6-10.6,9.6-10.6c-2.3-3.9-8.1-5.6-13.8-6.4
	c6.3-3.1,13.7-6.3,16.2-7.3c0.5-0.2,0.8-0.3,0.8-0.3v84.8c0,0,0,0,0,0v0c1.7,2.7,3.5,5,5.3,7.1l0,0c7.2,8.4,14.3,12.3,17.5,13.7
	c-0.6,5.1-1,8.6-1,8.6C125.5,412.3,123.7,413,122.3,413z"/>
<path class="st28" d="M45.4,553.7c0.2-3.5,0.4-6.8,0.6-10c2-32.4,3.5-55,6.2-77.1l0,0c-2.7,22.1-4.2,44.7-6.2,77.1
	C45.7,546.8,45.5,550.2,45.4,553.7z"/>
<path class="st24" d="M52.1,466.5L52.1,466.5c0.2-1.9,0.5-3.7,0.7-5.6c0.2-1.7,0.4-3.5,0.6-5.3c-0.2,1.8-0.4,3.6-0.6,5.3
	C52.6,462.8,52.4,464.6,52.1,466.5z"/>
<defs>
	
		<filter id="Adobe_OpacityMaskFilter_00000042706931288166135040000005801229684265634490_" filterUnits="userSpaceOnUse" x="42.1" y="295.5" width="140.8" height="367.9">
		<feColorMatrix  type="matrix" values="1 0 0 0 0  0 1 0 0 0  0 0 1 0 0  0 0 0 1 0"/>
	</filter>
</defs>
<mask maskUnits="userSpaceOnUse" x="42.1" y="295.5" width="140.8" height="367.9" id="mask6_12578_347732_00000148631159323724726080000012038146471068541065_">
	<path style="fill:#FFFFFF;filter:url(#Adobe_OpacityMaskFilter_00000042706931288166135040000005801229684265634490_);" d="
		M42.1,295.5h140.8v367.9H42.1V295.5z"/>
</mask>
<g class="st30">
	<path class="st31" d="M43.6,590.5c0.6-12.8,1.2-25.4,1.8-36.8c0.2-3.5,0.4-6.8,0.6-10c2-32.4,3.5-55,6.2-77.1
		c0.2-1.9,0.5-3.7,0.7-5.6c0.2-1.7,0.4-3.5,0.6-5.3c0.8-7.1,1.3-15,1.6-22.9c0.5,14.4,0.9,29.2,0.8,34.9
		c-0.4,12.7,3.6,48.4,2.3,54.7c0,0.1-0.1,0.2-0.1,0.2c-0.9,0-6-18.2-6-18.2S45.7,558.7,43.6,590.5z"/>
	<path class="st5" d="M43.8,662.5v-60.3h-0.8l0.8,0c1.2-20.6,2-41.7,3-58.6c2.1-35.1,3.7-58.7,6.9-82.7c1.6-12.1,2.3-27.1,2.7-40.8
		c0.5-13.6,0.7-25.9,1.5-32.1c0.8-6.2,2.3-9.9,4.2-14.1c1.9-4.1,4-8.6,5.9-16.2c1.9-7.6,3.7-18.8,5.8-28.7c1-4.9,2.2-9.5,3.4-13.1
		c0.6-1.8,1.3-3.3,1.9-4.5c0.7-1.2,1.3-2,1.9-2.4c3-2,9.3-5.1,14.7-7.6c2.7-1.2,5.3-2.4,7.2-3.2c1.9-0.8,3-1.3,3-1.3l-0.3-0.8h-0.8
		v84.8c0,0.2,0,0.3,0.1,0.5c11.3,17.4,24.9,21.8,25,21.8c0.4,0.1,0.9-0.1,1-0.5c4.3-12.4,6.2-21.1,8-27.7c1.9-6.6,3.7-11.2,7.8-15.6
		c3.6-3.8,6.8-8.1,10.1-11.4c3.4-3.3,6.9-5.5,11.3-5.5c1.7,0,3.6,0.3,5.7,1.1c2.3,0.9,4.1,1.7,5.3,3.3c1.2,1.6,2,4.3,2,9
		c0,3.3-0.4,7.6-1.2,13.2c-1.6,10.7-4,17.8-5.9,22.1c-1,2.2-1.9,3.6-2.5,4.6c-0.3,0.5-0.6,0.8-0.7,1l-0.2,0.2l0,0l0,0
		c-0.1,0.1-0.2,0.3-0.2,0.4c-0.2,1.6-0.3,3.9-0.3,6.5c0,9.7,1.4,24.9,3.6,33.6c0.3,1.2,0.4,2.6,0.4,4.2c0,6.4-2.1,15.8-4.7,25.7
		c-2.6,9.9-5.8,20.2-7.9,28.6c-2.3,9.1-9.9,23.3-16.9,35c-3.5,5.9-6.8,11.2-9.3,15c-1.2,1.9-2.3,3.5-3,4.5c-0.7,1.1-1.1,1.7-1.1,1.7
		l-0.1,0.4c0,0-0.3,5.2-0.3,13.2c0,8,0.3,18.7,1.3,29.6c0.2,2,0.4,4.2,0.7,6.4l0.8-0.1l-0.8,0c0,0,0.9,37.5,5,60.4
		c0.1,0.5,0.5,0.7,1,0.7c0.4-0.1,0.7-0.5,0.7-1c-2-11.3-3.3-26.4-4-38.6c-0.4-6.1-0.6-11.5-0.7-15.4c-0.1-3.9-0.2-6.2-0.2-6.2l0-0.1
		c-0.3-2.2-0.5-4.4-0.7-6.4c-1.1-10.9-1.3-21.6-1.3-29.5c0-4,0.1-7.2,0.1-9.5c0.1-2.3,0.1-3.6,0.1-3.6l-0.8,0l0.7,0.5
		c0,0,6.4-9.5,13.4-21.3c7-11.8,14.6-25.9,17.1-35.5c2.1-8.2,5.3-18.6,7.9-28.5c2.6-9.9,4.8-19.4,4.8-26.2c0-1.7-0.1-3.3-0.5-4.6
		c-2.1-8.5-3.5-23.7-3.5-33.2c0-2.6,0.1-4.8,0.3-6.3l-0.8-0.1l0.6,0.6c0.1-0.1,6.6-7.1,9.8-28.9c0.8-5.7,1.2-10,1.2-13.5
		c0-4.8-0.8-7.9-2.3-9.9c-1.5-2.1-3.7-3-6.1-3.9c-2.3-0.8-4.3-1.2-6.3-1.2c-5,0-9,2.6-12.5,6c-3.5,3.4-6.7,7.7-10.2,11.4
		c-4.4,4.7-6.3,9.6-8.2,16.3c-1.9,6.7-3.7,15.3-8,27.6l0.8,0.3l0.3-0.8l-0.1,0c-1.4-0.5-13.6-5.1-24-21.1l-0.7,0.5h0.8v-84.8
		c0-0.3-0.1-0.5-0.4-0.7c-0.2-0.2-0.5-0.2-0.8-0.1c0,0-4.7,2-10.2,4.5c-5.5,2.5-11.8,5.5-15,7.7c-0.9,0.6-1.7,1.7-2.5,3
		c-1.3,2.3-2.4,5.5-3.4,9.3c-3.1,11.3-5.4,27.6-7.8,37.4c-1.9,7.5-4,11.8-5.8,15.9c-1.9,4.1-3.5,8.1-4.3,14.5
		c-0.8,6.4-1.1,18.6-1.5,32.3c-0.5,13.6-1.1,28.7-2.7,40.6c-3.2,24-4.8,47.6-6.9,82.8c-1,17-1.8,38-3,58.6l0,0v60.3
		c0,0.5,0.4,0.8,0.8,0.8C43.4,663.3,43.8,663,43.8,662.5z"/>
</g>
<path class="st5" d="M129.4,402.4c0,0,0,0.2-0.1,0.5c-0.3,1.1-1.1,4-2.4,6.9c-0.6,1.4-1.4,2.8-2.3,4c-0.9,1.2-1.8,2.1-2.8,2.6
	c-1.6,0.8-3.5,1.1-5.4,1.1c-1.8,0-3.6-0.3-4.9-0.6c-0.6-0.1-1.2-0.3-1.5-0.4c-0.2-0.1-0.3-0.1-0.4-0.1l-0.1,0
	c-0.4-0.2-0.9,0.1-1.1,0.5c-0.2,0.4,0.1,0.9,0.5,1.1c0,0,3.5,1.2,7.5,1.2c2,0,4.2-0.3,6.1-1.3c1.5-0.8,2.8-2.1,3.8-3.7
	c3.1-4.7,4.6-11.4,4.6-11.4c0.1-0.4-0.2-0.9-0.6-1C129.9,401.7,129.5,402,129.4,402.4z"/>
<path class="st5" d="M106.4,380.8c0-0.1-0.7-1.6-2.4-3.2c-1.7-1.6-4.4-3.1-8.3-3.1c-3.4,0-7.6,1.1-12.9,4.3
	c-0.4,0.2-0.5,0.7-0.3,1.1c0.2,0.4,0.7,0.5,1.1,0.3c5.1-3.1,9-4.1,12-4.1c3.5,0,5.7,1.3,7.2,2.7c0.7,0.7,1.2,1.3,1.6,1.8
	c0.2,0.2,0.3,0.5,0.4,0.6l0.1,0.2l0,0l0,0c0.2,0.4,0.7,0.6,1.1,0.4C106.4,381.7,106.6,381.2,106.4,380.8z"/>
<path class="st5" d="M106.5,333.1c0-0.1-0.3-1.8-1.8-3.7c-1.5-1.9-4.2-4-8.7-4.9c-0.4-0.1-0.9,0.2-1,0.7c-0.1,0.5,0.2,0.9,0.7,1
	c4.2,0.8,6.5,2.6,7.7,4.2c0.6,0.8,1,1.6,1.2,2.1c0.1,0.3,0.2,0.5,0.2,0.6l0,0.2l0,0l0,0c0.1,0.4,0.5,0.8,1,0.7
	C106.2,334,106.5,333.5,106.5,333.1z"/>
<path class="st5" d="M131.1,552.6c-5.2,6.5-7.3,13-8.5,18.5c-1.3,5.5-1.8,10.2-3.6,13.1c-0.9,1.4-1.4,3.4-1.9,5.6
	c-1.4,6.8-1.6,16.6-1.6,21.3c0,1.7,0,2.8,0,2.8c0,0.5,0.4,0.8,0.8,0.8c0.5,0,0.8-0.4,0.8-0.8c0,0,0-1,0-2.8c0-3.1,0.1-8.5,0.5-13.7
	c0.2-2.6,0.6-5.1,1-7.3c0.4-2.2,1-4,1.7-5.1c2.1-3.5,2.5-8.2,3.8-13.6c1.3-5.4,3.3-11.5,8.2-17.8c0.3-0.4,0.2-0.9-0.1-1.2
	C131.9,552.2,131.4,552.3,131.1,552.6z"/>
<path class="st5" d="M57.4,429.9c0,0,0,1.6,0,4.2c0,8,0,25.8,0,40.4c0,19.5,3.7,38.2,3.7,38.3c0.1,0.4,0.5,0.7,1,0.6
	c0.4-0.1,0.7-0.5,0.6-1c0,0-0.1-0.3-0.2-0.8c-0.7-3.8-3.6-20.2-3.6-37.1c0-9.7,0-20.9,0-29.6c0-4.4,0-8.1,0-10.8c0-2.7,0-4.2,0-4.2
	c0-0.5-0.4-0.8-0.8-0.8C57.7,429.1,57.4,429.4,57.4,429.9z"/>
<path class="st5" d="M172.1,397.9c0,0,0-1.9-0.3-4.2c-0.1-1.1-0.3-2.3-0.7-3.4c-0.3-1.1-0.7-2.1-1.4-2.8c-0.3-0.3-0.8-0.3-1.2,0
	c-0.3,0.3-0.4,0.8,0,1.2c0.4,0.4,0.8,1.2,1,2.2c0.4,1.5,0.6,3.3,0.8,4.7c0.1,0.7,0.1,1.3,0.1,1.8c0,0.4,0,0.7,0,0.7
	c0,0.5,0.4,0.8,0.8,0.8C171.7,398.7,172.1,398.4,172.1,397.9z"/>
<path class="st5" d="M166.2,373.7c0-0.1-0.8-2.8-2.8-5.6c-1-1.4-2.3-2.8-3.9-3.9c-1.6-1.1-3.7-1.8-6-1.8c-2.1,0-4.4,0.5-7,1.8
	c-0.4,0.2-0.6,0.7-0.4,1.1c0.2,0.4,0.7,0.6,1.1,0.4c2.4-1.2,4.4-1.7,6.2-1.7c2,0,3.7,0.6,5.1,1.5c2.1,1.4,3.7,3.5,4.7,5.4
	c0.5,0.9,0.8,1.7,1.1,2.3c0.1,0.3,0.2,0.5,0.3,0.7l0.1,0.2l0,0.1c0.1,0.4,0.6,0.7,1,0.6C166,374.6,166.3,374.1,166.2,373.7z"/>
<path class="st5" d="M122.6,397.9c-0.2,0-0.5,0-0.7,0c-6,0-12.1-1.6-17.5-1.6c-3.4,0-6.7,0.7-9.2,3c-0.3,0.3-0.4,0.8-0.1,1.2
	c0.3,0.3,0.8,0.4,1.2,0.1c2.1-1.9,4.8-2.5,8.1-2.5c5.1,0,11.2,1.6,17.5,1.6c0.2,0,0.5,0,0.8,0c0.5,0,0.8-0.4,0.8-0.8
	C123.5,398.2,123.1,397.8,122.6,397.9z"/>
<path class="st5" d="M41.4,645.1h-2.8v-63.3h2.8c1.8,0,3.3,1.5,3.3,3.3v56.7C44.7,643.6,43.2,645.1,41.4,645.1z"/>
<path class="st5" d="M38.6,590c0,0,48.9-12.8,95.8,1.8c1.5,0.5,2.5,1.9,2.5,3.4v30c0,1.1-1,2-2.1,1.8c-10.1-1.8-54.4-8.8-93.8,0.4
	L38.6,590z"/>
<path class="st6" d="M40.8,589.4v-6.8c0-2.2-1.8-4-4-4h-5.5c-1.4,0-2.7,0.8-3.3,2l-4.8,8.8v51.7l4.8,5.8c0.7,0.9,1.8,1.4,2.9,1.4
	h5.9c2.2,0,4-1.8,4-4V589.4z"/>
<path class="st5" d="M40.8,589.4h0.8v-6.8c0-2.7-2.2-4.9-4.9-4.9h-5.5c-1.7,0-3.2,0.9-4,2.4l-4.8,8.8l-0.1,0.4v51.7
	c0,0.2,0.1,0.4,0.2,0.5l4.8,5.8c0.9,1.1,2.2,1.7,3.6,1.7h5.9c2.7,0,4.9-2.2,4.9-4.9v-54.9h-1.7v54.9c0,1.8-1.4,3.2-3.2,3.2h-5.9
	c-0.9,0-1.7-0.4-2.3-1.1h0l-4.6-5.6v-51.2l4.7-8.6c0.5-0.9,1.5-1.5,2.6-1.5h5.5c1.8,0,3.2,1.4,3.2,3.2v6.8H40.8z"/>
<path class="st6" d="M37.3,586.1l11.2-2.1c1.3-0.2,2.5,0.8,2.5,2.1v6.4l-3.7,2.7v20.9H51v10.9c0,1.3-0.9,2.3-2.1,2.6L38.3,632
	c-1.6,0.3-3.1-0.9-3.1-2.5v-40.9C35.2,587.4,36.1,586.3,37.3,586.1z"/>
<path class="st5" d="M37.3,586.1l0.2,0.8l11.2-2.1l0.2,0c0.7,0,1.3,0.6,1.3,1.3v6l-3.4,2.5c-0.2,0.2-0.3,0.4-0.3,0.7v20.9
	c0,0.2,0.1,0.4,0.2,0.6c0.2,0.2,0.4,0.2,0.6,0.2h2.9v10.1c0,0.9-0.6,1.6-1.5,1.8l-10.6,2.2l-0.4,0c-0.9,0-1.7-0.8-1.7-1.7v-40.9
	c0-0.8,0.6-1.6,1.4-1.7h0L37.3,586.1l-0.2-0.8c-1.6,0.3-2.8,1.7-2.8,3.3v40.9c0,1.9,1.6,3.4,3.4,3.4c0.2,0,0.5,0,0.7-0.1l10.6-2.2
	c1.6-0.3,2.8-1.8,2.8-3.4v-10.9c0-0.2-0.1-0.4-0.2-0.6c-0.2-0.2-0.4-0.2-0.6-0.2h-2.9v-19.7l3.4-2.5c0.2-0.2,0.3-0.4,0.3-0.7v-6.4
	c0-1.7-1.4-3-3-3c-0.2,0-0.4,0-0.5,0.1h0l-11.2,2.1L37.3,586.1z"/>
<path class="st5" d="M37.9,630l9.1-2.1c1.1-0.2,1.8-1.2,1.8-2.3v-6.8c0-0.5-0.4-0.8-0.8-0.8c-0.5,0-0.8,0.4-0.8,0.8v6.8
	c0,0.3-0.2,0.6-0.5,0.6l-9.1,2.1c-0.4,0.1-0.7,0.5-0.6,1C37,629.8,37.5,630.1,37.9,630z"/>
<path class="st5" d="M45.1,615.9v-22l3.3-2.5c0.2-0.2,0.3-0.4,0.3-0.7v-4.2c0-0.5-0.4-0.8-0.8-0.8c-0.5,0-0.8,0.4-0.8,0.8v3.8
	l-3.3,2.5c-0.2,0.2-0.3,0.4-0.3,0.7v22.4c0,0.5,0.4,0.8,0.8,0.8C44.7,616.8,45.1,616.4,45.1,615.9z"/>
<path class="st5" d="M28.7,582.7v59.9c0,0.5,0.4,0.8,0.8,0.8c0.5,0,0.8-0.4,0.8-0.8v-59.9c0-0.5-0.4-0.8-0.8-0.8
	C29,581.9,28.7,582.3,28.7,582.7z"/>
<path class="st4" d="M73.6,606.1c-0.9,0-1.6-0.7-1.6-1.6v-3.6c0-0.9,0.7-1.6,1.6-1.6c0.9,0,1.6,0.7,1.6,1.6v3.6
	C75.3,605.4,74.6,606.1,73.6,606.1z"/>
<path class="st4" d="M98.8,606.8c-0.9,0-1.6-0.7-1.6-1.6v-3.6c0-0.9,0.7-1.6,1.6-1.6c0.9,0,1.6,0.7,1.6,1.6v3.6
	C100.5,606,99.7,606.8,98.8,606.8z"/>
<path class="st4" d="M121.2,609.5c-0.9,0-1.6-0.7-1.6-1.6v-3.6c0-0.9,0.7-1.6,1.6-1.6c0.9,0,1.6,0.7,1.6,1.6v3.6
	C122.9,608.8,122.1,609.5,121.2,609.5z"/>
<path class="st32" d="M434.6,19.5c3.4,4.9,2.2,11.6-2.6,15c-4.9,3.4-11.6,2.2-15-2.6c-3.4-4.9-2.2-11.6,2.6-15
	C424.5,13.4,431.2,14.6,434.6,19.5z"/>
<path class="st33" d="M433.2,20.5c2.9,4.1,1.9,9.7-2.2,12.6c-4.1,2.9-9.7,1.9-12.6-2.2c-2.9-4.1-1.9-9.7,2.2-12.6
	C424.7,15.4,430.4,16.4,433.2,20.5z"/>
<path class="st34" d="M426.9,32l-0.4-1.5c-0.7,0.1-1.3,0.2-1.9,0.2c-0.5,0-0.9-0.4-0.9-0.9l0-0.1c0-0.5,0.4-1,1-0.9
	c0.5,0,1.1,0,1.7-0.2c0.9-0.2,1.4-0.7,1.2-1.3c-0.2-0.6-0.7-0.8-2-0.9c-1.8-0.1-3.1-0.6-3.5-2.1c-0.4-1.3,0.3-2.7,1.8-3.4l-0.4-1.5
	l1.5-0.4l0.4,1.3c0.6-0.1,1-0.2,1.4-0.2c0.5,0,0.9,0.4,0.9,0.9c0,0.5-0.4,0.9-0.9,0.9c-0.4,0-0.9,0-1.4,0.2c-1,0.3-1.2,0.8-1.1,1.2
	c0.1,0.5,0.8,0.7,2.2,0.8c2,0.2,3,0.8,3.3,2.2c0.4,1.4-0.3,2.8-2,3.6l0.4,1.6L426.9,32z"/>
<path class="st32" d="M490.9,87.3c3.4,4.9,2.2,11.6-2.6,15c-4.9,3.4-11.6,2.2-15-2.6c-3.4-4.9-2.2-11.6,2.6-15
	C480.7,81.3,487.4,82.4,490.9,87.3z"/>
<path class="st33" d="M489.4,88.3c2.9,4.1,1.9,9.7-2.2,12.6c-4.1,2.9-9.7,1.9-12.6-2.2c-2.9-4.1-1.9-9.7,2.2-12.6
	C481,83.2,486.6,84.2,489.4,88.3z"/>
<path class="st34" d="M483.1,99.8l-0.4-1.5c-0.7,0.1-1.3,0.2-1.9,0.2c-0.5,0-0.9-0.4-0.9-0.9l0-0.1c0-0.5,0.4-1,1-0.9
	c0.5,0,1.1,0,1.7-0.2c0.9-0.2,1.4-0.7,1.2-1.3c-0.2-0.6-0.7-0.8-2-0.9c-1.8-0.1-3.1-0.6-3.5-2.1c-0.4-1.3,0.3-2.7,1.8-3.4l-0.4-1.5
	l1.5-0.4l0.4,1.3c0.6-0.1,1-0.2,1.4-0.2c0.5,0,0.9,0.4,0.9,0.9c0,0.5-0.4,0.9-0.9,0.9c-0.4,0-0.9,0-1.4,0.2c-1,0.3-1.2,0.8-1.1,1.2
	c0.1,0.5,0.8,0.7,2.2,0.8c2,0.2,3,0.8,3.3,2.2c0.4,1.4-0.3,2.8-2,3.6l0.4,1.6L483.1,99.8z"/>
<path class="st32" d="M418.1,189.8c3.4,4.9,2.2,11.6-2.6,15c-4.9,3.4-11.6,2.2-15-2.6c-3.4-4.9-2.2-11.6,2.6-15
	C408,183.8,414.7,185,418.1,189.8z"/>
<path class="st33" d="M416.7,190.8c2.9,4.1,1.9,9.7-2.2,12.6c-4.1,2.9-9.7,1.9-12.6-2.2c-2.9-4.1-1.9-9.7,2.2-12.6
	C408.2,185.8,413.8,186.8,416.7,190.8z"/>
<path class="st34" d="M410.3,202.4l-0.4-1.5c-0.7,0.1-1.3,0.2-1.9,0.2c-0.5,0-0.9-0.4-0.9-0.9l0-0.1c0-0.5,0.4-1,1-0.9
	c0.5,0,1.1,0,1.7-0.2c0.9-0.2,1.4-0.7,1.2-1.3c-0.2-0.6-0.7-0.8-2-0.9c-1.8-0.1-3.1-0.6-3.5-2.1c-0.4-1.3,0.3-2.7,1.8-3.4l-0.4-1.5
	l1.5-0.4l0.4,1.3c0.6-0.1,1-0.2,1.4-0.2c0.5,0,0.9,0.4,0.9,0.9c0,0.5-0.4,0.9-0.9,0.9c-0.4,0-0.9,0-1.4,0.2c-1,0.3-1.2,0.8-1.1,1.2
	c0.1,0.5,0.8,0.7,2.2,0.8c2,0.2,3,0.8,3.3,2.2c0.4,1.4-0.3,2.8-2,3.6l0.4,1.6L410.3,202.4z"/>
<path class="st35" d="M367.6,34.8l-9,2.2l-6.4-5.7c-0.7-0.6-2-0.2-2.1,0.8l-1.3,8.6l-8.2,4.4c-0.9,0.5-0.9,1.8,0,2.1l8.2,3.2
	l1.4,8.4c0.2,1,1.4,1.2,2.1,0.5l6.4-6.7l9,0.7c1,0.1,1.8-1,1.3-1.8l-4.3-7.3l4.2-7.9C369.4,35.5,368.6,34.5,367.6,34.8z"/>
<path class="st36" d="M74,73.1l10.5,1.4l-0.8,14l15.1,3.6l1.5,10.6l6.6-0.6l-2-14.1l-14.3-3.4L91.4,70l-15.8-2.1L74,73.1z"/>
<path class="st32" d="M213.4,20.9l36.9,27.5l-18.6,16.7l-36.9-27.5L213.4,20.9z"/>
</svg>
